<svg xmlns="http://www.w3.org/2000/svg" viewBox="0 0 23.813 23.813" height="90" width="90"><path d="M4.233 23.813v-3.969l-1.852 1.059.89-2.382-1.948 1.323 1.323-2.646-1.323.511 1.8-3.157-1.8 1.323 3.138-3.968 3.477 3.483-1.916-.838 1.916 3.113-2.05-1.79 2.05 3.97-2.139-1.324.816 2.117-1.852-.794v3.969zM12.88 23.868v-3.48l-1.623.928.78-2.087-1.708 1.16 1.16-2.32-1.16.448 1.577-2.768-1.577 1.16 2.75-3.48 3.049 3.054-1.68-.734 1.68 2.729-1.797-1.569 1.797 3.48-1.875-1.16.715 1.855-1.624-.696v3.48z" fill="#4c6f40"/><path d="M8.996 23.813V21.32l-1.164.665.559-1.496-1.223.83.83-1.662-.83.321 1.13-1.983-1.13.831 1.97-2.493 2.185 2.188-1.203-.526 1.203 1.955-1.287-1.124 1.287 2.494-1.343-.831.512 1.33-1.164-.5v2.494zM19.702 23.837v-2.654l-1.157.708.556-1.592-1.217.884.827-1.769-.827.342 1.124-2.111-1.124.884 1.96-2.654 2.172 2.33-1.197-.56 1.197 2.08-1.28-1.196 1.28 2.654-1.336-.884.51 1.415-1.157-.53v2.653z" fill="#4c6f40"/><path d="M3.175 14.023L4.498 12.7l1.852 1.588h-.794l.794 1.587-.794-.529v.794l.265.794-.53-.265-.264.794-.794-1.058-.264.529-.265-.265-.529.53v-1.06l-.794.266 1.059-1.853.264-.529zM9.26 16.934l-.793.793.264-.264-.529 1.058.794-.529v.794l.265-.53.264.794.265-.793.264.264-.264-.794h.264z" fill="#e6e6e6"/><path d="M8.731 18.521l-.264.265v.529l.264-.41zM12.171 15.346l1.058-1.058 1.059 1.058-.53.265.53.794-.53-.265.53 1.587-.794-1.587-.265.53-.264-.795-.265.53v-.794h-.264z" fill="#e6e6e6"/><path d="M12.436 15.875l-.53.53-.264.529h.53l.264.529v-.794l.529.265-.53-.794zM13.519 16.87l-.073.525.45.597-.043-.66zM19.844 16.67l-.794.528.53.265-.53.794.794-.53.53.53-.265-.794.529.264-.265-.529h.265z" fill="#e6e6e6"/><path d="M19.713 17.992l-.305.132-.093.265.318-.152z" fill="#e6e6e6"/><path fill="#4c6f40" d="M0 0h23.812v11.906H0z"/><path fill="none" stroke="#3b5731" stroke-width=".071" d="M.035.035h23.742v23.742H.035z"/></svg>