<svg xmlns="http://www.w3.org/2000/svg" viewBox="0 0 23.813 23.813" height="90" width="90"><defs><clipPath clipPathUnits="userSpaceOnUse" id="e"><path fill="green" fill-opacity="0" stroke-width="0" d="M1.323 19.58h4.498v4.233H1.323z"/></clipPath><clipPath clipPathUnits="userSpaceOnUse" id="f"><path fill="green" fill-opacity="0" stroke-width="0" d="M3.704 13.229h8.731v5.821H3.704z"/></clipPath><clipPath id="g" clipPathUnits="userSpaceOnUse"><path fill="green" fill-opacity="0" stroke-width="0" d="M1.323 19.58h4.498v4.233H1.323z"/></clipPath><clipPath id="h" clipPathUnits="userSpaceOnUse"><path fill="green" fill-opacity="0" stroke-width="0" d="M3.704 13.229h8.731v5.821H3.704z"/></clipPath><clipPath id="a" clipPathUnits="userSpaceOnUse"><path fill="green" fill-opacity="0" stroke-width="0" d="M1.323 19.58h4.498v4.233H1.323z"/></clipPath><clipPath id="b" clipPathUnits="userSpaceOnUse"><path fill="green" fill-opacity="0" stroke-width="0" d="M3.704 13.229h8.731v5.821H3.704z"/></clipPath><clipPath clipPathUnits="userSpaceOnUse" id="c"><path fill="green" fill-opacity="0" stroke-width="0" d="M1.323 19.58h4.498v4.233H1.323z"/></clipPath><clipPath clipPathUnits="userSpaceOnUse" id="d"><path fill="green" fill-opacity="0" stroke-width="0" d="M3.704 13.229h8.731v5.821H3.704z"/></clipPath></defs><path d="M5.117 20.78s0-.793.794-1.851h-.153s-.64.68-.905 1.852h.264" fill="green"/><path d="M5.646 18.664s0 .799.4.4c.399-.4-.4-.4-.4-.4z" fill="#a00"/><path d="M4.835 20.78s0-.793-.794-1.851h.153s.64.68.905 1.852h-.264" fill="green"/><path d="M4.305 18.664s0 .799-.399.4c-.4-.4.4-.4.4-.4z" fill="#a00"/><path d="M4.853 20.78c-.221-.567-.878-1.208-.878-1.208s.702.404 1.041 1.209z" fill="green"/><path d="M5.1 20.78c.22-.372.876-.793.876-.793s-.702.266-1.04.794z" fill="green"/><path d="M4.953 20.78a3.225 3.225 0 00-.365-1.587s.53.712.53 1.588z" fill="green"/><path d="M5.117 20.642c.221-.568.877-1.21.877-1.21s-.701.405-1.04 1.21zM4.878 20.78c-.162-.265-.645-.564-.645-.564s.516.189.765.565zM17.064 21.167s0-.794.794-1.852h-.153s-.64.681-.905 1.852h.264" fill="green"/><path d="M17.594 19.05s0 .799.399.4c.4-.4-.4-.4-.4-.4z" fill="#a00"/><path d="M16.782 21.167s0-.794-.794-1.852h.153s.64.681.905 1.852h-.264" fill="green"/><path d="M16.253 19.05s0 .799-.4.4c-.399-.4.4-.4.4-.4z" fill="#a00"/><path d="M16.8 21.167c-.22-.568-.877-1.209-.877-1.209s.702.405 1.04 1.21z" fill="green"/><path d="M17.046 21.167c.221-.373.878-.794.878-.794s-.702.266-1.041.794z" fill="green"/><path d="M16.9 21.167a3.225 3.225 0 00-.365-1.587s.53.712.53 1.587z" fill="green"/><path d="M17.064 21.028c.221-.568.878-1.209.878-1.209s-.702.405-1.041 1.209zM16.825 21.167c-.162-.265-.644-.565-.644-.565s.515.19.765.565z" fill="green"/><g fill="green"><path d="M23.028 14.95s-.113 1.115-.656 1.545c-.543.43.656-1.544.656-1.544z"/><path d="M23.458 15.31s-.346 1.01-.954 1.177c-.609.168.954-1.177.954-1.177z"/><path d="M23.473 14.918s-.327 1.023-.932 1.214c-.605.19.932-1.214.932-1.214z"/><path d="M23.555 15.853s-.58.757-1.188.593c-.609-.164 1.188-.593 1.188-.593z"/><path d="M21.54 14.95s.113 1.115.655 1.545c.543.43-.656-1.544-.656-1.544z"/><path d="M21.167 15.827s.52.84 1.138.768c.618-.072-1.138-.768-1.138-.768z"/><path d="M21.309 15.258s.272 1.056.865 1.313c.593.257-.865-1.313-.865-1.313z"/><path d="M21.769 14.672s-.081 1.12.371 1.73c.453.608-.371-1.73-.371-1.73zM21.328 14.594s-.024.747.292 1.127c.317.379-.292-1.127-.292-1.127z"/><path d="M22.559 14.332s.157 1.315-.256 2.027c-.413.711.256-2.027.256-2.027z"/></g><g><path d="M8.299 13.592s.374.137 1.08-.537c0 0-.487-.271-1.159.452M7.797 13.684s-.245-.315-1.2-.118c0 0 .27.489 1.222.232" fill="#04b304"/><path d="M7.82 13.52s-.142-.373-1.113-.465c0 0 .117.547 1.102.58" fill="#04b304"/><path d="M8.054 13.483s.047-.397-.77-.93c0 0-.15.538.707 1.026" fill="#04b304"/><path d="M8.185 13.534s.442-.363.613-1.042c0 0-.748.332-.725 1.014M7.695 13.857s-.432-.399-1.146.357c0 0 .462.116 1.163-.275M8.228 13.742s.3.264 1.201-.107c0 0-.356-.43-1.244 0" fill="#04b304"/><path d="M8.281 13.866s.18.357 1.155.348c0 0-.172-.532-1.155-.463" fill="#04b304"/><path d="M2.646 23.813c-.265-.53.264-4.233.264-4.233-.14-.919-.136-1.588-.136-1.588s-1.425-.179-2.774.53c1.14-.778 2.646-.9 2.646-.9-.401-.3-1.197-.471-2.646-.43 1.252-.146 2.434-.078 2.91.27-.446-.896-1.915-1.154-2.91-1.59 1.005.356 2.607.475 3.034 1.236l.136-.16c-.115-.808-1.145-1.459-1.847-2.396.486.754 1.887 1.314 2.117 2.382.093-.814 1.852-2.382 1.852-2.382s-1.344 1.486-1.588 2.382c.942-.794 2.91-1.061 2.91-1.061s-1.97.593-2.773 1.325c.593-.29 2.774 0 2.774 0s-2.193.044-2.786.265c1.093-.105 2.786 1.06 2.786 1.06s-2.274-1.237-2.646-.796c0 0 .232 1.12 0 1.853 0 0 .462 4.02.264 4.233z" clip-path="url(#a)" transform="matrix(.43644 0 0 .46523 6.549 5.452)" fill="#46611f"/><path d="M7.673 23.284c-.265-.53.265-4.234.265-4.234-.14-.918-.137-1.587-.137-1.587s-1.425-.179-2.774.53c1.14-.779 2.646-.901 2.646-.901-.4-.3-1.197-.47-2.646-.429 1.252-.146 2.434-.079 2.91.27-.446-.896-1.915-1.154-2.91-1.59 1.005.356 2.608.475 3.034 1.236l.136-.16c-.115-.808-1.144-1.46-1.847-2.396.487.754 1.887 1.314 2.117 2.382.093-.814 1.852-2.382 1.852-2.382s-1.343 1.486-1.588 2.382c.942-.794 2.911-1.062 2.911-1.062s-1.972.594-2.774 1.326c.593-.29 2.774 0 2.774 0s-2.192.044-2.786.265c1.094-.105 2.786 1.06 2.786 1.06s-2.274-1.238-2.646-.796c0 0 .233 1.12 0 1.852 0 0 .462 4.02.265 4.234z" clip-path="url(#b)" transform="matrix(.43644 0 0 .43786 4.355 6.336)" fill="green"/></g><g><path d="M5.772 14.906s.374.137 1.08-.537c0 0-.487-.271-1.16.452M5.27 14.998s-.246-.315-1.2-.118c0 0 .27.489 1.222.232" fill="#04b304"/><path d="M5.293 14.833s-.143-.372-1.113-.464c0 0 .116.547 1.101.58" fill="#04b304"/><path d="M5.527 14.797s.047-.397-.77-.931c0 0-.15.538.706 1.027" fill="#04b304"/><path d="M5.658 14.848s.442-.363.613-1.042c0 0-.748.332-.725 1.014M5.168 15.171s-.432-.4-1.146.357c0 0 .461.116 1.163-.275M5.7 15.056s.3.263 1.202-.107c0 0-.356-.43-1.244 0" fill="#04b304"/><path d="M5.754 15.18s.18.356 1.154.348c0 0-.171-.532-1.154-.464" fill="#04b304"/><path transform="matrix(.43644 0 0 .46523 4.022 6.766)" clip-path="url(#c)" d="M2.646 23.813c-.265-.53.264-4.233.264-4.233-.14-.919-.136-1.588-.136-1.588s-1.425-.179-2.774.53c1.14-.778 2.646-.9 2.646-.9-.401-.3-1.197-.471-2.646-.43 1.252-.146 2.434-.078 2.91.27-.446-.896-1.915-1.154-2.91-1.59 1.005.356 2.607.475 3.034 1.236l.136-.16c-.115-.808-1.145-1.459-1.847-2.396.486.754 1.887 1.314 2.117 2.382.093-.814 1.852-2.382 1.852-2.382s-1.344 1.486-1.588 2.382c.942-.794 2.91-1.061 2.91-1.061s-1.97.593-2.773 1.325c.593-.29 2.774 0 2.774 0s-2.193.044-2.786.265c1.093-.105 2.786 1.06 2.786 1.06s-2.274-1.237-2.646-.796c0 0 .232 1.12 0 1.853 0 0 .462 4.02.264 4.233z" fill="#46611f"/><path transform="matrix(.43644 0 0 .43786 1.827 7.65)" clip-path="url(#d)" d="M7.673 23.284c-.265-.53.265-4.234.265-4.234-.14-.918-.137-1.587-.137-1.587s-1.425-.179-2.774.53c1.14-.779 2.646-.901 2.646-.901-.4-.3-1.197-.47-2.646-.429 1.252-.146 2.434-.079 2.91.27-.446-.896-1.915-1.154-2.91-1.59 1.005.356 2.608.475 3.034 1.236l.136-.16c-.115-.808-1.144-1.46-1.847-2.396.487.754 1.887 1.314 2.117 2.382.093-.814 1.852-2.382 1.852-2.382s-1.343 1.486-1.588 2.382c.942-.794 2.911-1.062 2.911-1.062s-1.972.594-2.774 1.326c.593-.29 2.774 0 2.774 0s-2.192.044-2.786.265c1.094-.105 2.786 1.06 2.786 1.06s-2.274-1.238-2.646-.796c0 0 .233 1.12 0 1.852 0 0 .462 4.02.265 4.234z" fill="green"/></g><g fill="green"><path d="M5.49 17.003s-.08 1.04-.47 1.442c-.391.4.47-1.442.47-1.442z"/><path d="M5.8 17.338s-.25.943-.687 1.1c-.437.156.687-1.1.687-1.1z"/><path d="M5.81 16.973s-.235.954-.67 1.132c-.435.179.67-1.132.67-1.132z"/><path d="M5.87 17.845s-.417.707-.855.554c-.437-.154.854-.554.854-.554z"/><path d="M4.42 17.003s.082 1.04.472 1.442c.39.4-.472-1.442-.472-1.442z"/><path d="M4.153 17.82s.374.785.818.718c.444-.068-.818-.717-.818-.717z"/><path d="M4.254 17.29s.196.986.622 1.226c.427.24-.622-1.226-.622-1.226z"/><path d="M4.585 16.743s-.058 1.045.267 1.614c.326.568-.267-1.614-.267-1.614zM4.268 16.67s-.017.698.21 1.052c.228.353-.21-1.052-.21-1.052z"/><path d="M5.153 16.425s.113 1.228-.184 1.892c-.297.664.184-1.892.184-1.892z"/></g><g fill="green"><path d="M22.633 17.463s-.272 2.64-1.578 3.657c-1.306 1.018 1.578-3.657 1.578-3.657z"/><path d="M23.668 18.313s-.833 2.392-2.297 2.789c-1.464.397 2.297-2.79 2.297-2.79z"/><path d="M23.704 17.385s-.788 2.423-2.244 2.875c-1.456.452 2.244-2.875 2.244-2.875z"/><path d="M23.9 19.599s-1.392 1.794-2.857 1.405c-1.466-.39 2.857-1.405 2.857-1.405z"/><path d="M19.05 17.463s.273 2.64 1.579 3.657c1.306 1.018-1.579-3.657-1.579-3.657z"/><path d="M18.154 19.537s1.254 1.99 2.74 1.82c1.485-.171-2.74-1.82-2.74-1.82z"/><path d="M18.495 18.191s.655 2.5 2.083 3.11c1.427.608-2.083-3.11-2.083-3.11z"/><path d="M19.602 16.802s-.195 2.653.894 4.096c1.09 1.442-.894-4.096-.894-4.096zM18.541 16.617s-.057 1.77.704 2.669c.761.898-.704-2.669-.704-2.669z"/><path d="M21.504 15.996s.377 3.116-.617 4.802c-.993 1.685.617-4.802.617-4.802z"/></g><path fill="#4c6f40" d="M0 0h23.812v11.906H0z"/><path fill="none" stroke="#3b5731" stroke-width=".071" d="M.035.035h23.742v23.742H.035z"/><g><path d="M4.01 16.042s.857.313 2.476-1.225c0 0-1.117-.62-2.656 1.032M2.859 16.253s-.561-.719-2.75-.27c0 0 .62 1.117 2.8.53" fill="#04b304"/><path d="M2.914 15.877s-.328-.851-2.551-1.06c0 0 .266 1.249 2.524 1.323" fill="#04b304"/><path d="M3.45 15.793s.106-.905-1.765-2.125c0 0-.345 1.23 1.618 2.346" fill="#04b304"/><path d="M3.75 15.91s1.013-.828 1.403-2.38c0 0-1.713.758-1.66 2.317M2.627 16.648s-.99-.911-2.627.815c0 0 1.058.264 2.665-.627M3.848 16.385s.685.602 2.751-.245c0 0-.815-.983-2.85-.001" fill="#04b304"/><path d="M3.969 16.67s.412.812 2.646.793c0 0-.393-1.215-2.646-1.058" fill="#04b304"/><path transform="matrix(1 0 0 1.0625 0 -2.547)" clip-path="url(#e)" d="M2.646 23.813c-.265-.53.264-4.233.264-4.233-.14-.919-.136-1.588-.136-1.588s-1.425-.179-2.774.53c1.14-.778 2.646-.9 2.646-.9-.401-.3-1.197-.471-2.646-.43 1.252-.146 2.434-.078 2.91.27-.446-.896-1.915-1.154-2.91-1.59 1.005.356 2.607.475 3.034 1.236l.136-.16c-.115-.808-1.145-1.459-1.847-2.396.486.754 1.887 1.314 2.117 2.382.093-.814 1.852-2.382 1.852-2.382s-1.344 1.486-1.588 2.382c.942-.794 2.91-1.061 2.91-1.061s-1.97.593-2.773 1.325c.593-.29 2.774 0 2.774 0s-2.193.044-2.786.265c1.093-.105 2.786 1.06 2.786 1.06s-2.274-1.237-2.646-.796c0 0 .232 1.12 0 1.853 0 0 .462 4.02.264 4.233z" fill="#46611f"/><path transform="translate(-5.027 -.53)" clip-path="url(#f)" d="M7.673 23.284c-.265-.53.265-4.234.265-4.234-.14-.918-.137-1.587-.137-1.587s-1.425-.179-2.774.53c1.14-.779 2.646-.901 2.646-.901-.4-.3-1.197-.47-2.646-.429 1.252-.146 2.434-.079 2.91.27-.446-.896-1.915-1.154-2.91-1.59 1.005.356 2.608.475 3.034 1.236l.136-.16c-.115-.808-1.144-1.46-1.847-2.396.487.754 1.887 1.314 2.117 2.382.093-.814 1.852-2.382 1.852-2.382s-1.343 1.486-1.588 2.382c.942-.794 2.911-1.062 2.911-1.062s-1.972.594-2.774 1.326c.593-.29 2.774 0 2.774 0s-2.192.044-2.786.265c1.094-.105 2.786 1.06 2.786 1.06s-2.274-1.238-2.646-.796c0 0 .233 1.12 0 1.852 0 0 .462 4.02.265 4.234z" fill="green"/></g><g><path d="M19.335 15.534s1.102.386 3.187-1.512c0 0-1.438-.765-3.42 1.273M17.853 15.793s-.723-.886-3.54-.332c0 0 .798 1.377 3.605.653" fill="#04b304"/><path d="M17.923 15.33s-.421-1.05-3.284-1.308c0 0 .343 1.54 3.25 1.632" fill="#04b304"/><path d="M18.613 15.227s.138-1.118-2.271-2.622c0 0-.445 1.516 2.083 2.893" fill="#04b304"/><path d="M19 15.37s1.303-1.021 1.806-2.935c0 0-2.206.934-2.137 2.857M17.554 16.281s-1.276-1.124-3.382 1.005c0 0 1.363.326 3.432-.774M19.126 15.956s.881.743 3.542-.302c0 0-1.05-1.212-3.669-.001" fill="#04b304"/><path d="M19.281 16.307s.531 1.003 3.407.979c0 0-.506-1.499-3.407-1.306" fill="#04b304"/><path d="M2.646 23.813c-.265-.53.264-4.233.264-4.233-.14-.919-.136-1.588-.136-1.588s-1.425-.179-2.774.53c1.14-.778 2.646-.9 2.646-.9-.401-.3-1.197-.471-2.646-.43 1.252-.146 2.434-.078 2.91.27-.446-.896-1.915-1.154-2.91-1.59 1.005.356 2.607.475 3.034 1.236l.136-.16c-.115-.808-1.145-1.459-1.847-2.396.486.754 1.887 1.314 2.117 2.382.093-.814 1.852-2.382 1.852-2.382s-1.344 1.486-1.588 2.382c.942-.794 2.91-1.061 2.91-1.061s-1.97.593-2.773 1.325c.593-.29 2.774 0 2.774 0s-2.193.044-2.786.265c1.093-.105 2.786 1.06 2.786 1.06s-2.274-1.237-2.646-.796c0 0 .232 1.12 0 1.853 0 0 .462 4.02.264 4.233z" clip-path="url(#g)" transform="matrix(1.28732 0 0 1.31056 14.172 -7.395)" fill="#46611f"/><path fill="none" d="M15.534 18.918h7.494v3.263h-7.494z"/><path fill="none" d="M16.216 18.591h5.791v5.222h-5.79z"/><path d="M7.673 23.284c-.265-.53.265-4.234.265-4.234-.14-.918-.137-1.587-.137-1.587s-1.425-.179-2.774.53c1.14-.779 2.646-.901 2.646-.901-.4-.3-1.197-.47-2.646-.429 1.252-.146 2.434-.079 2.91.27-.446-.896-1.915-1.154-2.91-1.59 1.005.356 2.608.475 3.034 1.236l.136-.16c-.115-.808-1.144-1.46-1.847-2.396.487.754 1.887 1.314 2.117 2.382.093-.814 1.852-2.382 1.852-2.382s-1.343 1.486-1.588 2.382c.942-.794 2.911-1.062 2.911-1.062s-1.972.594-2.774 1.326c.593-.29 2.774 0 2.774 0s-2.192.044-2.786.265c1.094-.105 2.786 1.06 2.786 1.06s-2.274-1.238-2.646-.796c0 0 .233 1.12 0 1.852 0 0 .462 4.02.265 4.234z" clip-path="url(#h)" transform="matrix(1.28732 0 0 1.23346 7.7 -4.907)" fill="green"/></g><g fill="green"><path d="M7.938 19.844s-.349 2.381-2.019 3.3c-1.67.918 2.019-3.3 2.019-3.3z"/><path d="M9.26 20.61s-1.065 2.159-2.937 2.517c-1.872.358 2.938-2.516 2.938-2.516z"/><path d="M9.307 19.774s-1.008 2.185-2.87 2.593c-1.862.408 2.87-2.593 2.87-2.593z"/><path d="M9.558 21.77s-1.781 1.62-3.654 1.268c-1.874-.35 3.654-1.267 3.654-1.267z"/><path d="M3.356 19.844s.348 2.381 2.019 3.3c1.67.918-2.019-3.3-2.019-3.3z"/><path d="M2.21 21.716s1.603 1.795 3.503 1.64c1.9-.154-3.503-1.64-3.503-1.64z"/><path d="M2.646 20.501s.838 2.256 2.663 2.805c1.825.55-2.663-2.805-2.663-2.805zM4.061 19.248s-.249 2.393 1.144 3.695c1.392 1.301-1.144-3.695-1.144-3.695z"/><path d="M2.705 19.081s-.074 1.598.9 2.408c.974.81-.9-2.408-.9-2.408zM6.494 18.521s.482 2.811-.789 4.331c-1.27 1.52.789-4.33.789-4.33z"/></g><g fill="green"><path d="M16.35 21.668s-.113 1.115-.656 1.545c-.543.43.656-1.545.656-1.545z"/><path d="M16.78 22.027s-.346 1.01-.955 1.178c-.608.168.955-1.178.955-1.178z"/><path d="M16.795 21.636s-.328 1.022-.933 1.213c-.605.191.933-1.213.933-1.213z"/><path d="M16.876 22.57s-.578.758-1.187.593c-.609-.164 1.187-.593 1.187-.593z"/><path d="M14.861 21.668s.113 1.115.656 1.545c.543.43-.656-1.545-.656-1.545z"/><path d="M14.489 22.544s.52.84 1.138.768c.617-.072-1.138-.768-1.138-.768z"/><path d="M14.63 21.976s.273 1.056.866 1.313c.593.257-.865-1.313-.865-1.313z"/><path d="M15.09 21.39s-.08 1.12.372 1.729-.372-1.73-.372-1.73zM14.65 21.311s-.024.748.292 1.127c.317.38-.292-1.127-.292-1.127z"/><path d="M15.88 21.05s.157 1.315-.255 2.026c-.413.712.256-2.027.256-2.027z"/></g><g fill="green"><path d="M10.584 17.198s-.146 2.082-.844 2.885c-.698.803.844-2.885.844-2.885z"/><path d="M11.136 17.869s-.445 1.887-1.227 2.2c-.783.313 1.227-2.2 1.227-2.2z"/><path d="M11.156 17.137s-.421 1.91-1.2 2.268c-.778.356 1.2-2.268 1.2-2.268z"/><path d="M11.26 18.883s-.744 1.415-1.527 1.109c-.783-.307 1.528-1.109 1.528-1.109z"/><path d="M8.669 17.198s.145 2.082.843 2.885c.698.803-.843-2.885-.843-2.885z"/><path d="M8.19 18.835s.67 1.57 1.464 1.435c.794-.135-1.464-1.435-1.464-1.435z"/><path d="M8.372 17.773s.35 1.972 1.113 2.453c.763.48-1.113-2.453-1.113-2.453z"/><path d="M8.963 16.677s-.104 2.093.478 3.231-.478-3.231-.478-3.231zM8.397 16.531s-.031 1.397.376 2.105c.407.709-.376-2.105-.376-2.105z"/><path d="M9.98 16.041s.201 2.459-.33 3.788c-.53 1.33.33-3.788.33-3.788z"/></g><g fill="green"><path d="M7.813 15.867s-.06 1.058-.35 1.466c-.288.407.35-1.466.35-1.466z"/><path d="M8.041 16.208s-.184.958-.507 1.117c-.324.16.507-1.117.507-1.117z"/><path d="M8.05 15.836s-.175.97-.497 1.152c-.321.181.496-1.152.496-1.152z"/><path d="M8.093 16.723s-.308.719-.632.563c-.324-.156.632-.563.632-.563z"/><path d="M7.021 15.867s.06 1.058.349 1.466c.288.407-.349-1.466-.349-1.466z"/><path d="M6.823 16.699s.277.797.605.728c.329-.068-.605-.728-.605-.728z"/><path d="M6.898 16.159s.145 1.002.46 1.246c.316.244-.46-1.246-.46-1.246z"/><path d="M7.143 15.602s-.043 1.064.197 1.642c.241.578-.197-1.642-.197-1.642zM6.908 15.528s-.012.71.156 1.07c.168.36-.156-1.07-.156-1.07z"/><path d="M7.563 15.28s.083 1.248-.136 1.923c-.22.676.136-1.923.136-1.923z"/></g><g fill="#00ab00"><path d="M2.943 20.366s-.146 2.082-.844 2.885c-.698.803.844-2.885.844-2.885z"/><path d="M3.496 21.036s-.445 1.887-1.228 2.2c-.782.314 1.228-2.2 1.228-2.2z"/><path d="M3.515 20.304s-.421 1.911-1.2 2.268c-.777.356 1.2-2.268 1.2-2.268z"/><path d="M3.62 22.05s-.744 1.416-1.527 1.109C1.31 22.852 3.62 22.05 3.62 22.05z"/><path d="M1.028 20.366s.146 2.082.844 2.885c.698.803-.844-2.885-.844-2.885z"/><path d="M.55 22.002s.67 1.57 1.463 1.435C2.807 23.302.55 22.002.55 22.002z"/><path d="M.731 20.94s.35 1.973 1.113 2.453c.763.48-1.113-2.453-1.113-2.453zM1.323 19.844s-.104 2.093.478 3.231-.478-3.23-.478-3.23z"/><path d="M.756 19.698s-.03 1.397.376 2.106c.407.708-.376-2.106-.376-2.106zM2.34 19.209s.201 2.458-.33 3.787c-.531 1.33.33-3.787.33-3.787z"/></g><g fill="#00ab00"><path d="M19.016 22.085s.146 1.184.844 1.641c.698.457-.844-1.641-.844-1.641z"/><path d="M18.463 22.466s.446 1.073 1.228 1.252c.782.178-1.228-1.252-1.228-1.252z"/><path d="M18.444 22.05s.421 1.087 1.2 1.29c.778.203-1.2-1.29-1.2-1.29z"/><path d="M18.34 23.043s.743.805 1.526.63c.783-.174-1.527-.63-1.527-.63z"/><path d="M20.931 22.085s-.145 1.184-.843 1.641c-.699.457.843-1.641.843-1.641z"/><path d="M21.41 23.016s-.67.893-1.464.816c-.794-.077 1.464-.816 1.464-.816z"/><path d="M21.228 22.412s-.35 1.122-1.113 1.395c-.763.273 1.113-1.395 1.113-1.395z"/><path d="M20.636 21.788s.105 1.19-.478 1.838c-.582.647.478-1.838.478-1.838zM21.203 21.705s.031.795-.376 1.198c-.407.403.376-1.198.376-1.198z"/><path d="M19.62 21.427s-.202 1.398.33 2.154c.53.756-.33-2.154-.33-2.154z"/></g></svg>