<svg xmlns="http://www.w3.org/2000/svg" viewBox="0 0 23.813 23.813" height="90" width="90"><defs><clipPath id="a" clipPathUnits="userSpaceOnUse"><path fill="green" fill-opacity="0" stroke-width="0" d="M3.704 13.229h8.731v5.821H3.704z"/></clipPath><clipPath clipPathUnits="userSpaceOnUse" id="b"><path fill="green" fill-opacity="0" stroke-width="0" d="M3.704 13.229h8.731v5.821H3.704z"/></clipPath><clipPath clipPathUnits="userSpaceOnUse" id="c"><path fill="green" fill-opacity="0" stroke-width="0" d="M3.704 13.229h8.731v5.821H3.704z"/></clipPath></defs><path d="M9.02 22.381s-.313-.46-1.532-.172c0 0 .345.715 1.56.339" fill="#04b304"/><path d="M8.972 22.072s-.34-.637-1.774-.466c0 0 .365.967 1.798.683" fill="#04b304"/><path d="M9.252 22.063s-.03-.627-1.318-1.294c0 0-.084.868 1.25 1.456" fill="#04b304"/><path d="M9.35 22.331s.736-.535 1.047-1.562c0 0-1.23.477-1.227 1.516M9.239 22.495s-.66-.334-2.002.524c0 0 .76.047 2.016-.445M9.412 22.488s.427.386 1.716-.156c0 0-.509-.63-1.778 0" fill="#04b304"/><path d="M9.508 22.822s.34.548 1.605.251c0 0-.38-.846-1.639-.446" fill="#04b304"/><path d="M7.673 23.284c-.215-.431.521-2.66.689-3.936l-.067-1.817c-.152 0-.46-.265-.46-.265-1.48.242-1.459.018-2.808.728 1.14-.78 2.646-.902 2.646-.902-.4-.3-1.197-.47-2.646-.429 1.252-.146 2.434-.079 2.91.27-.446-.896-1.915-1.154-2.91-1.59 1.005.356 2.608.475 3.034 1.236l.136-.16c-.115-.808-1.144-1.46-1.847-2.396.487.754 1.887 1.314 2.117 2.382.093-.814 1.852-2.382 1.852-2.382s-1.343 1.486-1.588 2.382c.942-.794 2.911-1.062 2.911-1.062s-1.972.594-2.774 1.326c.593-.29 2.774 0 2.774 0s-2.192.044-2.786.265c1.094-.105 2.786 1.06 2.786 1.06s-2.274-1.238-2.646-.796c0 0-.338.361-.509.361l.078 1.838c.195 1.454 1.02 3.253.696 3.887z" clip-path="url(#a)" transform="matrix(.62061 0 0 .59465 3.993 12.43)" fill="green"/><path d="M6.615 23.813s.139-2.677-.774-3.902c-.788-1.058-.616-2.011-.527-2.624.2-1.377-1.874-2.47-2.668-2.47v-.265s2.643-.133 3.198 2.512c.174.831-.195.699-.062 1.457.223 1.294.908 1.384 1.132 2.69l.446 2.602" fill="#4c6f40"/><path d="M6.615 23.813s-.53-2.91 1.058-4.763c1.588-1.852.265-2.116.265-2.116s-1.74-.433-.794-1.852c.068-.193.285-.474.413-.552.228-.138.38.022.38.022s-.529.794-.529 1.323c0 .53 1.323.794 1.588 1.323.265.53-1.058 2.117-1.058 2.117-.5 1.264-1.104 2.424-.794 4.498z" fill="#4c6f40"/><path d="M6.35 23.813s0-2.91.265-3.44c.264-.529 1.323-1.587 1.323-1.587s-1.588 0-1.588-1.059c0-1.058-.264-1.058-.264-1.058s.529.265.529 1.058c0 .794 1.587.794 1.587.794v.265l-1.058 1.852v3.175zM8.731 17.727s1.097.048 1.891-1.01c.794-1.059 1.814-1.106 1.814-1.106v-.265s-1.323.265-2.117 1.323c-.794 1.058-1.588.53-1.588.53z" fill="#4c6f40"/><path d="M10.584 16.405s.229-.61-.53-1.323v-.265s.66.096.794 1.323zM3.104 17.216s.313.725 2.188 1.305l.282.29s-1.073.068-2.577-1.237z" fill="#4c6f40"/><path d="M2.117 17.463s-.265.529.264.264c.53-.264.265.071.265.071s-.265.194.264.194c.53 0 .265-.53.265-.53s.794 0 .53-.264c-.265-.264-.795-.529-1.06-.264-.264.264 0 .264 0 .264s-.528 0-.528.265zM2.91 15.346s.185 1.075-.726.32c-.91-.756.271-.698.271-.698s-1.424.049-1.153-.649c.272-.697 1.182.058 1.182.058s-.668-.862-.184-1.075c.485-.213.669.862.669.862s.164-.94.513-.804c.349.136.32.727-.165.94-.484.213.485-.213.35.136 0 0 .278.42-.272.697.017.94-.485.213-.485.213zM7.81 15.03s-.544.183-.298-.397c-.625-.201-.104-.61-.104-.61s-.57-.395.132-.656c.701-.261.662.127.662.127s.2-.278.682-.058c.481.22.112.587.112.587s.2-.19.33.161c.13.35.098.723-.383.503-.481-.22.4.172.05.302 0 0-.13.488-.702.261-.69.638-.481-.22-.481-.22zM9.828 15.025s-.383.178-.293-.236c-.163-.188.132-.573.332-.412 0 0 .099-.37.332-.412.372-.04.582.122.246.539.29.12.389.348-.126.578-.166.206-.332.412-.491-.057zM11.898 15.512s-.391-.16-.026-.375c.028-.248.51-.292.528-.036 0 0 .34-.18.528-.036.282.246.306.51-.228.546.11.294.008.521-.51.3-.264.018-.528.036-.292-.399zM6.124 17.142s-.384.178-.293-.236c-.163-.189.132-.573.332-.412 0 0 .099-.371.332-.412.372-.04.582.122.246.538.29.12.388.349-.126.578-.166.206-.332.412-.491-.056z" fill="#04b304"/><path d="M16.65 23.738s.13-2.504-.724-3.649c-.737-.99-.994-.658-1.987-.858-1.239-.974.033-1.768-.71-1.768l.53-.265s-.472 1.518.264 1.852c0 0 1.153-.003 1.588.265 0 0 1.109.768 1.319 1.99l.417 2.433" fill="#4c6f40"/><path d="M16.65 23.738l.284-2.835c.173-1.026 1.323-1.059 1.323-1.059.788-.236.793-1.058.793-1.058s.18-1.088-.529-2.381c0 0 .203-.593.456-.07.678 1.404.603 2.715.603 2.715-.048.537-.56.973-.56.973-.201.683-1.305.107-1.557.88-.467 1.182-.608.896-.319 2.835z" fill="#4c6f40"/><path d="M17.676 23.871s0-2.721-.247-3.216c0 0-.795-1.844-1.554-2.134-.793-1.323-1.058-3.175-1.058-3.175s0 2.381.794 3.175c1.323 1.059 1.323 2.382 1.323 2.382v2.968z" fill="#4c6f40"/><path d="M19.195 19.23s-1.026.044-1.768-.946-1.696-1.034-1.696-1.034v-.248s1.237.248 1.98 1.237c.741.99 1.484.495 1.484.495z" fill="#4c6f40"/><path d="M17.463 17.992s-.214-.57.495-1.237v-.247s-.617.09-.743 1.237z" fill="#4c6f40"/><path d="M14.058 15.858s-.248.495.247.248c.495-.248.247.066.247.066s-.247.181.248.181.247-.495.247-.495.742 0 .495-.247c-.247-.248-.742-.495-.99-.248-.247.248 0 .248 0 .248s-.494 0-.494.247zM18.738 16.443s-.508.17-.278-.372c-.584-.187-.097-.57-.097-.57s-.533-.37.123-.614.62.12.62.12.187-.26.637-.055c.45.206.105.55.105.55s.186-.178.309.15c.122.328.09.676-.359.47-.45-.206.374.16.046.283 0 0-.12.456-.656.244-.646.596-.45-.206-.45-.206z" fill="#04b304"/><path d="M18.17 16.702s.358.167.273-.22c.153-.177-.124-.536-.31-.385 0 0-.092-.347-.31-.386-.349-.037-.545.114-.23.504-.272.111-.364.325.117.54.156.193.31.385.46-.053zM16.234 17.157s.365-.15.024-.35c-.026-.232-.478-.273-.494-.034 0 0-.317-.168-.494-.034-.263.23-.286.477.214.51-.103.276-.008.489.476.281.247.017.494.034.274-.373zM12.965 17.727s-.508.171-.279-.371c-.584-.188-.096-.57-.096-.57s-.534-.37.122-.614.62.12.62.12.187-.26.637-.055c.45.206.105.55.105.55s.187-.178.309.15c.122.328.091.676-.359.47-.45-.206.375.16.047.282 0 0-.121.457-.656.244-.646.597-.45-.206-.45-.206z" fill="#04b304"/><path d="M14.254 19.2s.562-.234.563-1.208l.18-.17s.357.512-.393 1.389z" fill="#4c6f40"/><path d="M14.56 17.72s-.273-.285.12-.33c.118-.202.548-.057.466.169 0 0 .358-.026.465.168.148.317.069.552-.402.381-.017.293-.19.45-.55.064-.232-.085-.464-.17-.098-.452z" fill="#04b304"/><path d="M19.118 19.438s.428.432 1.33.067l.225.104s-.34.523-1.434.157z" fill="#4c6f40"/><path d="M20.601 19.92s-.358.167-.274-.22c-.152-.176.124-.536.31-.385 0 0 .093-.347.312-.385.347-.037.544.113.23.503.271.112.363.326-.119.54-.155.193-.31.386-.459-.052z" fill="#04b304"/><g fill="#00ab00"><path d="M4.492 21.991s.146 1.184.844 1.641c.698.457-.844-1.64-.844-1.64z"/><path d="M3.94 22.372s.445 1.074 1.227 1.252c.782.178-1.228-1.252-1.228-1.252z"/><path d="M3.92 21.956s.421 1.087 1.2 1.29c.778.203-1.2-1.29-1.2-1.29zM3.815 22.95s.744.804 1.527.63c.783-.175-1.527-.63-1.527-.63z"/><path d="M6.407 21.991s-.145 1.184-.844 1.641c-.698.457.844-1.64.844-1.64z"/><path d="M6.886 22.922s-.67.893-1.464.816c-.794-.077 1.464-.816 1.464-.816z"/><path d="M6.704 22.318s-.35 1.122-1.113 1.395c-.763.273 1.113-1.395 1.113-1.395z"/><path d="M6.112 21.694s.104 1.191-.478 1.838c-.582.648.478-1.838.478-1.838zM6.68 21.612s.03.794-.377 1.197c-.407.403.376-1.197.376-1.197z"/><path d="M5.096 21.333s-.202 1.398.33 2.154c.53.756-.33-2.154-.33-2.154z"/></g><g fill="#00ab00"><path d="M17.604 22.73s.092.75.534 1.04c.443.29-.534-1.04-.534-1.04z"/><path d="M17.254 22.972s.282.68.777.793c.496.113-.777-.793-.777-.793z"/><path d="M17.241 22.708s.267.689.76.817c.493.129-.76-.817-.76-.817z"/><path d="M17.175 23.338s.471.51.967.399c.496-.11-.967-.4-.967-.4z"/><path d="M18.817 22.73s-.092.75-.535 1.04c-.442.29.535-1.04.535-1.04z"/><path d="M19.12 23.32s-.424.566-.927.517c-.503-.048.927-.517.927-.517z"/><path d="M19.005 22.937s-.222.711-.705.884c-.483.173.705-.884.705-.884z"/><path d="M18.63 22.543s.066.754-.303 1.164c-.368.41.303-1.164.303-1.164zM18.99 22.49s.019.503-.239.759c-.258.255.238-.759.238-.759z"/><path d="M17.986 22.314s-.127.885.209 1.364c.336.48-.209-1.364-.209-1.364z"/></g><g><path d="M21.265 22.179s.353-.563 1.729-.212c0 0-.39.875-1.761.415" fill="#04b304"/><path d="M21.32 21.8s.383-.778 2.001-.569c0 0-.411 1.182-2.03.834" fill="#04b304"/><path d="M21.003 21.789s.033-.766 1.487-1.58c0 0 .096 1.06-1.41 1.78" fill="#04b304"/><path d="M20.892 22.117s-.83-.654-1.182-1.909c0 0 1.39.583 1.386 1.853M21.018 22.317s.744-.407 2.26.641c0 0-.859.058-2.276-.544M20.823 22.31s-.482.47-1.937-.192c0 0 .574-.77 2.006 0" fill="#04b304"/><path d="M20.714 22.717s-.383.67-1.811.307c0 0 .428-1.034 1.849-.546" fill="#04b304"/><path transform="matrix(-.70047 0 0 .72674 26.938 10.017)" clip-path="url(#b)" d="M7.673 23.284c-.215-.431.521-2.66.689-3.936l-.067-1.817c-.152 0-.46-.265-.46-.265-1.48.242-1.459.018-2.808.728 1.14-.78 2.646-.902 2.646-.902-.4-.3-1.197-.47-2.646-.429 1.252-.146 2.434-.079 2.91.27-.446-.896-1.915-1.154-2.91-1.59 1.005.356 2.608.475 3.034 1.236l.136-.16c-.115-.808-1.144-1.46-1.847-2.396.487.754 1.887 1.314 2.117 2.382.093-.814 1.852-2.382 1.852-2.382s-1.343 1.486-1.588 2.382c.942-.794 2.911-1.062 2.911-1.062s-1.972.594-2.774 1.326c.593-.29 2.774 0 2.774 0s-2.192.044-2.786.265c1.094-.105 2.786 1.06 2.786 1.06s-2.274-1.238-2.646-.796c0 0-.338.361-.509.361l.078 1.838c.195 1.454 1.02 3.253.696 3.887z" fill="green"/></g><g><path d="M15.879 22.913s-.21-.295-1.025-.111c0 0 .23.458 1.044.217" fill="#04b304"/><path d="M15.846 22.714s-.227-.408-1.186-.298c0 0 .244.62 1.203.437" fill="#04b304"/><path d="M16.034 22.708s-.02-.401-.882-.829c0 0-.056.557.837.934" fill="#04b304"/><path d="M16.1 22.88s.492-.343.7-1c0 0-.823.305-.82.97M16.025 22.985s-.441-.213-1.34.336c0 0 .51.03 1.35-.285M16.14 22.981s.287.247 1.15-.1c0 0-.341-.403-1.19 0" fill="#04b304"/><path d="M16.206 23.195s.226.35 1.073.161c0 0-.253-.543-1.096-.286" fill="#04b304"/><path transform="matrix(.41535 0 0 .38105 12.515 16.536)" clip-path="url(#c)" d="M7.673 23.284c-.215-.431.521-2.66.689-3.936l-.067-1.817c-.152 0-.46-.265-.46-.265-1.48.242-1.459.018-2.808.728 1.14-.78 2.646-.902 2.646-.902-.4-.3-1.197-.47-2.646-.429 1.252-.146 2.434-.079 2.91.27-.446-.896-1.915-1.154-2.91-1.59 1.005.356 2.608.475 3.034 1.236l.136-.16c-.115-.808-1.144-1.46-1.847-2.396.487.754 1.887 1.314 2.117 2.382.093-.814 1.852-2.382 1.852-2.382s-1.343 1.486-1.588 2.382c.942-.794 2.911-1.062 2.911-1.062s-1.972.594-2.774 1.326c.593-.29 2.774 0 2.774 0s-2.192.044-2.786.265c1.094-.105 2.786 1.06 2.786 1.06s-2.274-1.238-2.646-.796c0 0-.338.361-.509.361l.078 1.838c.195 1.454 1.02 3.253.696 3.887z" fill="green"/></g><path fill="#4c6f40" d="M0 0h23.812v11.906H0z"/><path fill="none" stroke="#3b5731" stroke-width=".071" d="M.035.035h23.742v23.742H.035z"/></svg>