<svg xmlns="http://www.w3.org/2000/svg" viewBox="0 0 23.812 29.104" height="110" width="90"><path d="M10.583 25.135l.53-1.587v-1.852C5.82 16.404 5.291 9.26 5.291 9.26s1.323 6.615 5.291 10.055l-1.852-8.732C7.938 7.938 6.35 5.292 6.35 5.292s2.117 2.646 2.91 5.291c0 0 1.059 3.44 2.117 8.732l-3.44-16.67 3.97 15.347 3.968-15.346-3.44 16.669 2.117-8.732c.53-2.646 2.646-5.291 2.646-5.291s-1.588 2.646-2.117 5.291l-1.852 8.732c3.969-3.44 5.292-10.055 5.292-10.055s-.53 7.144-5.821 12.436v1.852l.53 1.587z" fill="#4c6f40"/></svg>