<svg xmlns="http://www.w3.org/2000/svg" viewBox="0 0 23.812 29.104" height="110" width="90"><path d="M11.51 25.183l-.133-1.323c-1.323-2.381-1.323-5.292-1.323-5.292 0-2.646 1.588-6.614 1.588-6.614s-1.323 3.968-1.323 6.614c0 0 .264 3.44 1.323 4.763l-.53-7.409c-.793-2.646-1.852-5.291-1.852-5.291s1.323 2.645 2.117 5.291c0 0 .265 1.588.53 6.88.264-5.292.528-6.88.528-6.88.53-2.646 2.117-5.291 2.117-5.291s-1.323 2.645-1.852 5.291l-.53 7.409c.795-1.323 1.324-4.763 1.324-4.763 0-2.646-1.323-6.614-1.323-6.614s1.587 3.968 1.587 6.614c0 0-.264 2.91-1.323 5.292l-.132 1.323z" fill="#4c6f40"/></svg>