<svg xmlns="http://www.w3.org/2000/svg" viewBox="0 0 23.812 29.104" height="110" width="90"><path d="M10.319 23.019l.793-.794v-1.852C5.822 15.08 3.97 6.615 3.97 6.615s2.646 7.937 6.614 11.377C9.79 17.198 9.26 16.14 9.26 16.14L6.085 9.26 3.97 3.97 6.615 9.26s1.587 3.97 3.968 7.938L8.731 9.26C7.937 6.615 6.35 3.97 6.35 3.97S8.467 6.615 9.26 9.26c0 0 1.059 3.44 2.117 8.732l-3.44-16.67 3.176 11.907s.793-2.91.793-4.498c0-1.323-.793-3.704-.793-3.704S12.17 6.88 12.17 9.26c0 1.323-.794 4.498-.794 4.498l.53 2.91 3.968-15.345-3.44 16.669 2.117-8.732c.025-.122.39-.87.48-.781l3.489 3.163 2.381 3.44-2.646-3.176-3.175-2.646-1.852 7.938c1.151-2.158 3.44-7.938 3.44-7.938L18.52 3.97 17.198 9.26s-1.656 4.359-2.646 6.88c0 0-.53 1.058-1.323 1.852 3.969-3.44 6.615-11.377 6.615-11.377S17.992 15.08 12.7 20.373v1.852l.794.794z" fill="#4c6f40"/><path d="M9.26 25.135c0-2.645 2.646-2.645 2.646-2.645s2.646 0 2.646 2.645z" fill="#ced3b2"/></svg>