<svg xmlns="http://www.w3.org/2000/svg" viewBox="0 0 23.812 29.104" height="110" width="90"><path d="M10.848 25.135l.53-1.252-2.382-1.393-2.91-1.574-4.234 1.323 4.163-1.637 3.245 1.623 2.117 1.072-1.587-1.601-2.646-2.368-5.027-.013 5.291-.265 2.646 2.381 1.323 1.323-1.058-2.381-2.117-4.763-2.91-3.44 3.175 3.44 2.116 4.763 1.059 2.117-.53-2.117L7.939 5.82l3.44 14.552.528 2.117.53-2.117L15.874 5.82 12.7 20.373l-.53 2.117 1.06-2.117 2.116-4.763 3.175-3.44-2.91 3.44-2.117 4.763-1.059 2.381 1.323-1.323 2.646-2.381 5.292.278h-5.292l-2.381 2.368-1.588 1.601 2.117-1.072 3.44-1.588 3.968 1.588-3.968-1.31-3.175 1.575-2.382 1.322.53 1.323z" fill="#8b1e2e"/><path d="M14.817 22.49c2.38-.794 3.175-.53 3.175-.53.529-.264 3.968.265 3.968.265l-3.968-1.323z" fill="#4c6f40"/><path d="M14.552 22.225s2.646-2.117 3.44-2.117c1.058.265 3.968 2.117 3.968 2.117l-3.968-1.587zM8.996 22.49c-2.381-.794-3.175-.53-3.175-.53-.53-.264-3.969.265-3.969.265l4.233-1.323z" fill="#4c6f40"/><path d="M9.26 22.225s-2.38-2.117-3.175-2.117c-1.322.53-4.233 2.117-4.233 2.117l4.233-1.587zM14.023 21.696s1.455-.447 2.646-1.323c.793-.794 5.027-1.058 5.027-1.058h-5.292z" fill="#4c6f40"/><path d="M13.758 21.431s1.852-2.646 2.91-3.44c2.382-.528 5.028 1.324 5.028 1.324l-5.292-.265z" fill="#4c6f40"/><path d="M9.79 21.696l-2.382-1.323-5.291-1.058h5.027z" fill="#4e6e3f" fill-opacity=".976"/><path d="M10.054 21.431s-1.587-2.646-2.646-3.44c-2.38-.528-5.291 1.324-5.291 1.324l5.291-.265zM13.494 20.373s3.175-2.91 3.704-3.704c.794-1.323 1.323-4.498 1.323-4.498l-2.91 3.44z" fill="#4c6f40"/><path d="M13.23 20.373l1.322-5.292 3.969-2.91-3.175 3.44zM10.583 20.373L9.26 15.08l-3.968-2.91 3.175 3.44z" fill="#4c6f40"/><path d="M10.319 20.373s-3.175-2.91-3.704-3.704c-.794-1.323-1.323-4.498-1.323-4.498l2.91 3.44zM11.377 20.373s.53-2.381.53-4.233c-1.324-5.557-3.97-10.32-3.97-10.32-.005-.023 2.294 9.79 3.44 14.553z" fill="#4c6f40"/><path d="M12.435 20.373s-.529-2.381-.529-4.233c1.323-5.557 3.969-10.32 3.969-10.32zM12.7 20.373l2.646-5.292.529-9.26zM11.112 20.373l-2.91-5.82-.264-8.732z" fill="#4c6f40"/></svg>