<svg xmlns="http://www.w3.org/2000/svg" viewBox="0 0 23.812 29.104" height="110" width="90"><path d="M11.377 25.135v-.472l-1.587-1.38-5.027-4.762 5.291 4.498 1.323 1.058-.794-3.44-.793-3.44L7.144 12.7l2.91 4.498.794 3.44 1.058 3.175 1.059-3.175.793-3.44 2.646-4.498-2.381 4.498-.794 3.44-.794 3.44 1.323-1.06 5.292-4.497-5.027 4.762-1.588 1.31v.542z" fill="#8b1e2e"/><path d="M9.79 23.283s-2.117 0-3.97-.793c-1.322-1.588-1.057-3.97-1.057-3.97zm4.233 0s2.381 0 3.969-.793c1.323-1.852 1.058-3.97 1.058-3.97z" fill="#4c6f40"/><path d="M10.054 23.019s-.264-2.117-1.323-3.704c-1.323-.794-3.968-.794-3.968-.794zm3.704 0s.265-2.117 1.323-3.704c1.323-.794 3.969-.794 3.969-.794zm-.528-2.381s1.322-1.323 2.38-2.91c.794-1.588.794-5.028.794-5.028l-2.381 4.498zm-2.647 0s-1.323-1.323-2.38-2.91c-.795-1.588-1.06-5.028-1.06-5.028l2.647 4.498z" fill="#4c6f40"/><path d="M10.848 20.638s.794-2.117.53-3.97c-1.06-1.851-4.234-3.968-4.234-3.968l2.91 4.498zm2.117 0s-.794-2.117-.53-3.97c.794-1.851 3.97-3.968 3.97-3.968l-2.647 4.498z" fill="#4c6f40"/></svg>