<svg xmlns="http://www.w3.org/2000/svg" viewBox="0 0 23.812 29.104" height="110" width="90"><path d="M9.26 25.12c0-3.029 2.117-3.14 2.117-3.14l-2.381-1.594-2.91-1.802-4.234 1.514 4.163-1.873 3.245 1.858 2.117 1.227-1.587-1.833-2.646-2.71-5.027-.015 5.291-.303 2.646 2.725 1.323 1.514-1.058-2.725-2.117-5.451-2.91-3.937 3.175 3.937 2.116 5.45 1.059 2.424-.53-2.423L7.939 1.307l3.44 16.656.528 2.423.53-2.423 3.439-16.656L12.7 17.963l-.53 2.423 1.06-2.423 2.116-5.451 3.175-3.937-2.91 3.937-2.117 5.45-1.059 2.726 1.323-1.514 2.646-2.725 5.292.318h-5.292l-2.381 2.71-1.588 1.833 2.117-1.227 3.44-1.817 3.968 1.817-3.968-1.499-3.175 1.802-2.382 1.514s2.117.191 2.117 3.22z" fill="#8b1e2e"/><path d="M14.817 20.386c2.38-.909 3.175-.606 3.175-.606.529-.303 3.968.303 3.968.303l-3.968-1.514zM8.996 20.386c-2.381-.909-3.175-.606-3.175-.606-.53-.303-3.969.303-3.969.303l4.233-1.514z" fill="#4c6f40"/><path d="M9.26 20.083S6.88 17.66 6.085 17.66c-1.322.606-4.233 2.423-4.233 2.423l4.233-1.817zM14.023 19.477s1.455-.511 2.646-1.514c.793-.909 5.027-1.211 5.027-1.211h-5.292z" fill="#4c6f40"/><path d="M9.79 19.477l-2.382-1.514-5.291-1.211h5.027z" fill="#4e6e3f" fill-opacity=".976"/><path d="M10.054 19.174s-1.587-3.028-2.646-3.937c-2.38-.605-5.291 1.515-5.291 1.515l5.291-.303zM13.494 17.963s3.175-3.331 3.704-4.24c.794-1.514 1.323-5.148 1.323-5.148l-2.91 3.937z" fill="#4c6f40"/><path d="M13.23 17.963l1.322-6.057 3.969-3.33-3.175 3.936zM10.583 17.963L9.26 11.906l-3.968-3.33 3.175 3.936z" fill="#4c6f40"/><path d="M10.319 17.963s-3.175-3.331-3.704-4.24C5.82 12.21 5.292 8.575 5.292 8.575l2.91 3.937zM11.377 17.963s.53-2.726.53-4.845c-1.324-6.36-3.97-11.81-3.97-11.81-.005-.028 2.294 11.204 3.44 16.655z" fill="#4c6f40"/><path d="M12.435 17.963s-.529-2.726-.529-4.845c1.323-6.36 3.969-11.81 3.969-11.81z" fill="#4c6f40"/><path d="M12.7 17.963l2.646-6.057.529-10.599zM11.112 17.963L8.202 11.3l-.264-9.994zM13.758 19.214s1.852-3.028 2.91-3.936c2.382-.606 5.028 1.514 5.028 1.514l-5.292-.303z" fill="#4c6f40"/><path d="M14.552 20.087s2.646-2.423 3.44-2.423c1.058.303 3.968 2.423 3.968 2.423l-3.968-1.817z" fill="#4c6f40"/><ellipse ry=".005" rx=".004" cx="18.488" cy="4.981" fill="#4c6f40" stroke="#000" stroke-width=".283"/></svg>