<svg xmlns="http://www.w3.org/2000/svg" viewBox="0 0 23.813 23.813" height="90" width="90"><path fill="#4c6f40" d="M0 0h23.812v11.906H0z"/><path fill="none" stroke="#3b5731" stroke-width=".071" d="M.035.035h23.742v23.742H.035z"/><ellipse ry="1.323" rx=".661" cy="15.875" cx="4.63" fill="#987335"/><ellipse ry="1.323" rx=".661" cy="17.198" cx="7.276" fill="#987335"/><ellipse ry="1.323" rx=".661" cy="18.521" cx="9.922" fill="#987335"/><ellipse cx="1.984" cy="14.552" rx=".661" ry="1.323" fill="#987335"/><ellipse cx="12.568" cy="19.844" rx=".661" ry="1.323" fill="#987335"/><ellipse ry="1.323" rx=".661" cy="21.167" cx="15.214" fill="#987335"/><path d="M17.727 23.813V21.96c-.53 0-1.058-1.058-1.058-1.058s1.058.265 1.19.794c.133-.53 1.191-.794 1.191-.794s-.53 1.058-1.058 1.058v1.852zM20.24 23.813v-2.91c-.529 0-1.322-1.588-1.322-1.588s1.455.793 1.587 1.323c.132-.53 1.588-1.323 1.588-1.323s-.794 1.587-1.323 1.587v2.91z" fill="#4c6f40"/></svg>