<svg xmlns="http://www.w3.org/2000/svg" viewBox="0 0 23.813 23.813" height="90" width="90"><path fill="#4c6f40" d="M0 0h23.812v11.906H0z"/><path fill="none" stroke="#3b5731" stroke-width=".071" d="M.035.035h23.742v23.742H.035z"/><path d="M11.377 23.754v-3.947l-1.852-1.579.265.79s-.53.79-1.059.79c-.793 0-1.058-.264-1.058-.264-.265-.263 0-.263 0-.526-.15-.114-.265-.263-.53-.263-.087-.263-.243-.263-.264-.79 0-.263.265-.526 1.323-.526.794 0 1.058.526 1.058.526s.53-.152.794 0l1.323 1.316-1.587-2.368c-1.853-.494-2.117-1.316-2.117-1.316-.53-.526.264-2.368.264-2.368s1.588.526 1.853 1.053c0 0 .529 1.315.264 2.368l1.852 2.368 1.852-2.368c-.264-1.053.265-2.368.265-2.368.264-.527 1.852-1.053 1.852-1.053s.794 1.842.265 2.368c0 0-.265.79-2.117 1.316l-1.588 2.368 1.323-1.316c.53-.14.794 0 .794 0s.265-.526 1.058-.526c.794 0 1.323.263 1.323.526 0 .527-.264.79-.264.79-.265 0-.53.263-.53.263 0 .263.265.263 0 .526 0 0-.264.263-1.058.263-.529.008-1.058-.79-1.058-.79l.265-.789-1.853 1.58v3.946z" fill="#4c6f40"/></svg>