<svg xmlns="http://www.w3.org/2000/svg" viewBox="0 0 6.615 6.615" height="25" width="25"><g stroke="green"><path d="M1.587 2.646v2.91c0 .265.265.265.265.265h2.91s.265 0 .265-.265v-2.91 0" fill="none" stroke-width=".265"/><path d="M3.307 5.292V2.91" fill="green" stroke-width=".265"/><path d="M4.233 5.292V2.91M2.381 5.292V2.91" fill="none" stroke-width=".265"/><path d="M1.587 2.381l3.525.002c.444-.002.517-.53.517-.53s-.073-.53-.517-.531H1.495c-.437 0-.516.53-.516.53s.08.53.609.53z" fill="none" stroke-width=".262"/><path d="M3.31.701c.394.093.394.093.497.487h-.993C2.91.794 2.91.794 3.31.701z" fill="none" stroke-width=".246"/></g></svg>