<svg xmlns="http://www.w3.org/2000/svg" viewBox="0 0 23.8 26.5"><defs/><path fill="#e6ece1" stroke="#4c6f40" stroke-width=".6" d="M12 16.8l1.4-2s7.4-1.5 8.8-3c0 0 1.6-5.2-3-5.9-1.2-5.2-4.4-3-4.4-3C11.5-1 9 2.9 9 2.9S5.2 1.5 4.6 6c-5.2 1.3-3 5.9-3 5.9 1.5 1.5 8.9 3 8.9 3z"/><path fill="#4c6f40" d="M10.8 25v-5.4h-.2s-.3 1.3-1 1.8c-.7.3-1.7.3-1.7.3s0-1.3.6-1.6a8 8 0 012-.8h.3V19h-.5s-2.3.9-3.7.8c-1.3 0-1.6-.5-1.6-.5s.2-.8 1.4-.8c1.5 0 4 .3 4 .3h.4v-.3l-.7-.2s-1.1.5-4.5 0c-3-.6-4.3-1.1-4.3-1.1s1.3-.5 4.8-.3c3.2.3 4 1 4 1l.7.4V18l-1.5-.8S4 15.9 2.6 14.6c-1.3-1.4-1.5-3-1.5-3s.2-.5 3.4.6c4 2.4 5 4.7 5 4.7l1.6.8.3-.2-1-1.9s-4.4-1.8-6-4.2c-.8-1.6-1.9-4.8-1.9-4.8s1.4 0 4.5 2.7c3.2 4 3.5 6 3.5 6l1 1.9-1.5-4L7.4 9C6.1 6.6 6.1 4 6.1 4s2.6 1.3 3.2 3.4c.4 2 .8 3.9 1 5.8l1 2.7.3.5h.6l.2-.5 1-2.7s.4-4 1.2-5.8c.7-2.1 3.4-3.7 3.4-3.7s-.3 3-1.9 5.3l-2.3 4.2-1.6 4 1-1.9s.3-2 3.2-6c3.4-2.7 4.8-2.7 4.8-2.7s-1 3.2-1.9 4.8a20.8 20.8 0 01-5.8 4.2l-1 1.9.2.2 1.6-.8s1-2.3 5-4.7c3.2-.8 3.5-.6 3.5-.6s-.3 1.6-1.6 3c-1.4 1.3-6.6 2.6-6.6 2.6L13 18v.3l.8-.3s.8-.8 3.1-1c4.3-.3 5.6.2 5.6.2s-1.3.5-4.2 1c-3.5.6-4.5 0-4.5 0l-.8.3v.3h.5s2.4-.3 4-.3c1 0 1.3.8 1.3.8s-.3.6-1.6.5c-1.3 0-3.7-.8-3.7-.8H13v.3h.2s1.6.2 2.1.8c.6.5.6 1.6.6 1.6s-1 0-1.6-.3c-.5-.5-1-1.8-1-1.8H13V25z"/><path fill="none" stroke="#4c6f40" stroke-width=".5" d="M8.5 7.6s0-5.4 4.2-2.7"/><path fill="none" stroke="#4c6f40" stroke-width=".3" d="M15.7 8s0-2.7-2.5-1.4m-5.2 4s0-2.7 2.6-1.3m1 1.1s1.3-2.3 3 .2"/><path fill="none" stroke="#4c6f40" stroke-width=".2" d="M10 13.2s.4-1.5 1.7-.4m1.3-1.2s1.4-.6 1.3 1.1M2.6 10.6S2.3 9 4 9.5"/><path fill="none" stroke="#4c6f40" stroke-width=".3" d="M19 9.6s2.3-1 2.3 1.9"/></svg>