<svg xmlns="http://www.w3.org/2000/svg" viewBox="0 0 66.1 105.8">
    <defs/>
    <path fill="#4c6f40" d="M6 4h15c1.5 0 3 1.8 3 3.7v33.6c0 1.9-1.5 3.7-3 3.7H6c-1.4 0-3-1.8-3-3.7V7.7c0-2 1.6-3.8 3-3.8zM3.3 67.8h60.1v35.3H3.3zM14 57.4L8.2 66h11.5z"/>
    <circle cx="13.9" cy="57.2" r="2.1" fill="#4c6f40"/>
    <path fill="#4c6f40" d="M10.6 55.8c3.4-3.5 6.2-.2 6.2-.2l.8-1s-4.2-3.5-7.6.4z"/>
    <path fill="#4c6f40" d="M8.4 54.2c5.8-6.2 10.8-.4 10.8-.4l.9-.9s-6.5-6.5-12.4.4z"/>
    <path fill="#4c6f40" d="M6.6 52.3c8.2-8.7 14.6 0 14.6 0l1-1s-8.2-9.8-16.6 0z"/>
    <path fill="#e6ece1" d="M7.3 6h12.5c1.3 0 2.5 1.5 2.5 3.1v28.1c0 1.6-1.2 3.2-2.5 3.2H7.3c-1.3 0-2.5-1.6-2.5-3.2v-28C4.8 7.4 6 6 7.3 6z"/>
    <circle cx="13.6" cy="42.6" r="1.8" fill="#7caa6c"/>
    <path fill="#4c6f40" stroke="#4c6f40" stroke-width=".4" d="M11.7 26.1L9 28.8"/>
    <circle cx="13.6" cy="24.3" r="4.7" fill="#4c6f40"/>
    <path fill="#4c6f40" stroke="#4c6f40" stroke-width=".4" d="M15.4 26.1l2.7 2.7"/>
    <path fill="#4c6f40" stroke="#4c6f40" stroke-width="1.4" d="M11.5 21.6L8.8 19M15.2 21.6L18 19"/>
    <path fill="#4c6f40" stroke="#4c6f40" stroke-width=".9" d="M-8.2 19.4H-3v1.7h-5.2z" transform="rotate(-40.9) skewX(-.1)"/>
    <circle cx="13.6" cy="24.2" r="3.6" fill="#7caa6c"/>
    <path fill="#4c6f40" stroke="#4c6f40" stroke-width=".9" d="M-28.5 1.8h5.2v1.7h-5.2z" transform="matrix(-.75528 -.6554 -.65434 .7562 0 0)"/>
    <path fill="#4c6f40" d="M10.8 15.7c2.9-3 5.3-.1 5.3-.1l.7-1s-3.6-3-6.5.5z"/>
    <path fill="#4c6f40" d="M8.9 14.3C13.9 9 18 14 18 14l.8-.8s-5.6-5.6-10.7.4z"/>
    <path fill="#867554" d="M12.6 34.9h1.8v4.2h-1.8z"/>
    <path fill="#4c6f40" d="M7.3 12.7c7-7.5 12.5 0 12.5 0l.8-.8s-7-8.5-14.1 0z"/>
    <circle cx="13.6" cy="33.4" r="2.6" fill="#4c6f40"/>
    <path fill="#4c6f40" d="M32.7 5.5h23.8c2.6 0 4 0 4 1.3v14.6c0 1.3-1.4 1.3-4 1.3H32.7c-2.6 0-4 0-4-1.3V6.8c0-1.3 1.4-1.3 4-1.3z"/>
    <path fill="#e6ece1" d="M34.2 6.7H56c2.4 0 3.6 0 3.6 1.1v12.4c0 1-1.2 1-3.6 1H34.2c-2.4 0-3.6 0-3.6-1V7.8c0-1 1.2-1 3.6-1z"/>
    <g transform="matrix(.99623 0 0 .99764 -70.4 -133.7)">
        <circle cx="106.9" cy="150.4" r="2.1" fill="#4c6f40"/>
        <path fill="#4c6f40" stroke="#4c6f40" stroke-width=".6" d="M106.2 149.3l-1.2-1.2"/>
        <path fill="#4c6f40" stroke="#4c6f40" stroke-width=".2" d="M106 151.2l-1.1 1.2M107.7 151.2l1.2 1.2"/>
        <path fill="#4c6f40" stroke="#4c6f40" stroke-width=".6" d="M107.7 149.2l1.2-1.2"/>
        <path fill="#4c6f40" stroke="#4c6f40" stroke-width=".4" d="M103.8 148.5l1.7-1.5.6.6-1.8 1.5zM109.9 148.5L108 147l-.5.6 1.7 1.5z"/>
        <circle cx="106.9" cy="150.3" r="1.6" fill="#7caa6c"/>
        <path fill="#4c6f40" d="M105.7 146.6c1.3-1.4 2.4-.1 2.4-.1l.3-.4s-1.6-1.4-3 .2z"/>
        <path fill="#4c6f40" d="M104.8 146c2.2-2.4 4.2-.2 4.2-.2l.3-.3s-2.5-2.6-4.8.1z"/>
        <path fill="#4c6f40" d="M104.1 145.2c3.2-3.3 5.6 0 5.6 0l.4-.4s-3.1-3.7-6.3 0z"/>
    </g>
    <g transform="matrix(.99623 0 0 .99764 -70.6 -133.3)">
        <path fill="#867554" d="M114.6 147.9h1.8v4.2h-1.8z"/>
        <circle cx="115.5" cy="146.4" r="2.6" fill="#4c6f40"/>
    </g>
    <path fill="#4c6f40" d="M43.1 22h2.4v9.7h-2.4z"/>
    <path fill="#4c6f40" d="M35 30.8h18.7v1.7H35zM34.7 45.1h1.2v19.8h-1.2zM43.9 45.3h1.2v19.8h-1.2z"/>
    <path fill="#4c6f40" d="M32 45.3h6.6s0-3.5-3.4-5.3c-3.2 1.8-3.1 5.3-3.1 5.3zM40.5 44.7h8.2v.8h-8.2zM40.5 44.7h.6s0-7.3-.3-9.1c-.3 1.8-.3 9.1-.3 9.1z"/>
    <path fill="#4c6f40" d="M48 44.8h.6s0-7.4-.3-9.2c-.3 1.8-.3 9.2-.3 9.2zM43 44.8h.7s0-7.3-.4-9.1c-.3 1.8-.3 9.1-.3 9.1zM45.5 45h.7s0-7.4-.4-9.2c-.3 1.8-.3 9.2-.3 9.2zM53.3 45.5h1.2v19.8h-1.2z"/>
    <path fill="#4c6f40" d="M54.5 45.6s1.2-1.5 3.5-1v-.9l-8 .1v1c2.5-1 3.3.8 3.3.8z"/>
    <g stroke="#4c6f40" transform="matrix(.99623 0 0 .99764 -73 -133)">
        <circle cx="123.5" cy="150" r=".6" fill="#4c6f40" stroke-width=".1"/>
        <path fill="none" stroke-width=".3" d="M122.4 143.1h7.9v9.1h-7.9z"/>
        <circle cx="123.5" cy="144.7" r=".6" fill="#4c6f40" stroke-width=".1"/>
        <circle cx="123.5" cy="146.5" r=".6" fill="#4c6f40" stroke-width=".1"/>
        <circle cx="123.5" cy="148.3" r=".6" fill="#4c6f40" stroke-width=".1"/>
        <path fill="none" stroke-width=".2" d="M124.5 144.7h5M124.5 146.5h5M124.5 148.3h5M124.5 150h5"/>
    </g>
</svg>