<svg xmlns="http://www.w3.org/2000/svg" viewBox="0 0 26.46 26.46"><defs/><path fill="green" d="M5.03 26.46L9 21.16c-5.3-6.6 0-11.9 0-11.9C12.96 5.29 14.29 6.61 15.6 0c2.65 2.65 5.3 11.9 5.3 14.55 0 3.97-3.98 7.94-10.6 7.94l-2.64 3.97z"/><path fill="#00b70a" d="M5.82 26.46l5.03-6.73c-1.33-.8-2.65-3.59-2.65-3.59s1.32 2.12 3.18 2.91c0 0 1.17-1.55 1.43-2.08-1.85-.8-4.34-4.8-4.34-4.8s3.18 3.71 4.77 3.97c.91-1.32 1.2-2.38 1.2-2.38-1.59-.52-3.6-3.7-3.6-3.7s2.57 2.66 3.89 3.19c.65-1.65 1-3.1 1-3.1-1.06-.27-1.7-1.68-1.7-1.68S15 9.6 15.8 9.84c.9-3.14.34-7.99.34-7.99s2.65 8.73-5 18.69l-4 5.92z"/></svg>