<svg xmlns="http://www.w3.org/2000/svg" viewBox="0 0 66.1 105.8">
    <defs>
        <path id="reuse-0" fill="#867554" d="M42.6 48.2h1.3v12.3h-1.3z"/>
    </defs>
    <defs>
        <filter id="a" width="1" height="1" x="0" y="0" color-interpolation-filters="sRGB">
            <feGaussianBlur stdDeviation=".1"/>
        </filter>
    </defs>
    <path fill="#4c6f40" d="M2.5 67.7h60.3V103H2.5z" filter="url(#a)" transform="matrix(.99623 0 0 .99764 0 0)"/>
    <path fill="#867554" d="M19.8 48.2h1.3v12.3h-1.3zM28.4 27.1h5.5V65h-5.5z"/>
    <circle cx="30.6" cy="23.7" r="9.7" fill="#4c6f40"/>
    <path fill="#4c6f40" d="M51.7 39.6S42.2 32 42 49h3s-1.3-11.6 6.7-6.1z"/>
    <path fill="#867554" d="M2.5 59.6h60v6.5h-60z"/>
    <path fill="#4c6f40" d="M51.2 40.8V51h4.4V40.8l-.6-3s2-1.4 3.5 0c1.2 0 1.5-1.4 1.5-1.4s-.2-1.5-1.5-1.5c-1.5 1.5-3.8 0-3.8 0h-3s-2 1.5-3.5 0c-1.1 0-1.4 1.5-1.4 1.5s.3 1.5 1.4 1.4c1.5-1.4 3.6 0 3.6 0M12.2 39.2s9.5-7.6 9.8 9.5h-3s1.3-11.6-6.8-6.1z"/>
    <path fill="#4c6f40" d="M12.8 40.4v10.3H8.3V40.4l.6-3s-2-1.4-3.5 0C4.2 37.5 4 36 4 36s.2-1.5 1.5-1.5c1.5 1.5 3.8 0 3.8 0h3s2 1.5 3.5 0c1.2 0 1.5 1.5 1.5 1.5s-.3 1.5-1.5 1.5c-1.5-1.5-3.5 0-3.5 0"/>
    <circle cx="5.1" cy="19.5" r="1.4" fill="#4c6f40" stroke="#4c6f40" stroke-width=".2"/>
    <path fill="none" stroke="#4c6f40" stroke-width=".9" d="M2.6 2.1h16.8v27.6H2.6z"/>
    <circle cx="5.1" cy="8.3" r="1.4" fill="#4c6f40" stroke="#4c6f40" stroke-width=".2"/>
    <circle cx="5.1" cy="12" r="1.4" fill="#4c6f40" stroke="#4c6f40" stroke-width=".2"/>
    <circle cx="5.1" cy="15.8" r="1.4" fill="#4c6f40" stroke="#4c6f40" stroke-width=".2"/>
    <path fill="none" stroke="#4c6f40" stroke-width=".4" d="M7.2 5.3h10.6M7.2 12.8h10.6M7.2 16.6h10.6M7.2 20.4h10.6"/>
    <path fill="none" stroke="#4c6f40" stroke-width=".7" d="M39.6 1.8H63V16H39.6z"/>
    <path fill="none" stroke="#4c6f40" stroke-width=".7" d="M43 8.5l1.8-2 .8 1.2 2-2.3 2.2 1.9L51.6 5l2.5 4.8.9-1 3.2 3.6 2.3-3 1.4 1"/>
    <path fill="none" stroke="#4c6f40" stroke-width=".3" d="M40.6 4.2h1M40.6 5.6h1M40.6 6.7h1M40.6 7.8h1M40.6 9h1M40.5 10.2h1M40.5 11.4h1M40.5 12.7h1M40.5 13.8h1"/>
    <circle cx="5.1" cy="23.3" r="1.4" fill="#4c6f40" stroke="#4c6f40" stroke-width=".2"/>
    <path fill="none" stroke="#4c6f40" stroke-width=".4" d="M7.2 24.2h10.6"/>
    <circle cx="5.1" cy="27.1" r="1.4" fill="#4c6f40" stroke="#4c6f40" stroke-width=".2"/>
    <path fill="none" stroke="#4c6f40" stroke-width=".4" d="M7.2 28h10.6"/>
    <circle cx="5.1" cy="4.5" r="1.4" fill="#4c6f40" stroke="#4c6f40" stroke-width=".2"/>
    <path fill="none" stroke="#4c6f40" stroke-width=".4" d="M7.2 9h10.6"/>
    <path fill="#4c6f40" d="M4.9 50.3h11v9.2h-11zM47.6 50.4h11v9.2h-11z"/>
</svg>