<svg xmlns="http://www.w3.org/2000/svg" viewBox="0 0 66.1 105.8">
    <defs/>
    <path fill="#4c6f40" d="M3.2 68.9h60.3V103H3.2z"/>
    <circle cx="16.5" cy="17.8" r="14.2" fill="none" stroke="#4c6f40" stroke-width="2.5"/>
    <g transform="translate(-2.3 -133.8)">
        <path fill="#867554" d="M12.3 183.5h2.5v8.1h-2.5z"/>
        <circle cx="13.6" cy="180.7" r="5" fill="#4c6f40"/>
    </g>
    <g transform="translate(-3.5 -133.8)">
        <path fill="#867554" d="M27.9 180.1h2.7v14.1h-2.7z"/>
        <circle cx="29" cy="178.3" r="5" fill="#4c6f40"/>
    </g>
    <g transform="translate(-.6 -133.8)">
        <path fill="#867554" d="M38.9 178.4h3.4v18.4h-3.4z"/>
        <circle cx="40.3" cy="175.9" r="5" fill="#4c6f40"/>
    </g>
    <g transform="translate(-2.3 -133.8)">
        <path fill="#867554" d="M54.5 176.4h3.4v23.3h-3.4z"/>
        <circle cx="56.2" cy="173.7" r="5" fill="#4c6f40"/>
    </g>
    <circle cx="36.2" cy="6" r="3.6" fill="none" stroke="#4c6f40" stroke-width=".6"/>
    <path fill="none" stroke="#4c6f40" stroke-width=".7" d="M39.6 7l-.2 22.5c1.3 3.5 5 4.3 7.8 0h11.7"/>
    <path fill="none" stroke="#4c6f40" stroke-width=".7" d="M43 32.5l13.6-.1c2.9-2 2-2.9 2-2.9v0M56.1 29.4l.1-23.2c-.2-3-.5-3.8-5-3.6l-15.8-.2"/>
    <path fill="none" stroke="#4c6f40" stroke-width=".5" d="M47.6 7.4h5.9M47.6 10.2h5.9M47.6 13.1h5.9M47.6 16h5.9M47.7 18.8h5.8M47.5 24.5h6M47.7 21.7h5.8"/>
    <path fill="#867554" d="M42.7 22.6h1.9v4.2h-1.9z"/>
    <circle cx="43.6" cy="21.1" r="2.6" fill="#4c6f40"/>
    <path fill="#4c6f40" d="M14.5 53.9h6.7L20 52.8h.7l1.5 1.5-1.5 1.5h-.7l1-1.2h-6.6"/>
    <path fill="#7caa6c" d="M16.2 18l6 6.5v-2.2l.7.8V26h-2.7l-.7-.7h2l-6-6.6"/>
    <path fill="#7caa6c" d="M15.8 17.3l12.4-7.2-3.3-.9 1.4-.8 4.4 1.2-1.2 4.4-1.4.8 1-3.3-12.5 7.2"/>
    <circle cx="16.5" cy="17.8" r="2.2" fill="#4c6f40" stroke="#4c6f40" stroke-width="3.2"/>
    <path fill="#867554" d="M43.1 7.9h1.1v2.4h-1.1z"/>
    <circle cx="43.6" cy="7" r="1.5" fill="#4c6f40"/>
    <path fill="#867554" d="M42.9 14.4h1.4v3.2h-1.4z"/>
    <circle cx="43.6" cy="13.3" r="2" fill="#4c6f40"/>
    <path fill="#4c6f40" d="M28.7 53.9h6.7l-1.1-1.1h.7l1.5 1.5-1.5 1.5h-.7l1-1.2h-6.6M43 53.9h6.6l-1.1-1.1h.7l1.5 1.5-1.5 1.5h-.7l1.1-1.2H43"/>
</svg>