<svg xmlns="http://www.w3.org/2000/svg" viewBox="0 0 6.615 6.615" height="25" width="25"><path fill="#4c6f40" d="M3.175 6.086V4.763l-.498-.344.074.237s-.149.237-.297.237c-.223 0-.297-.079-.297-.079-.074-.08 0-.08 0-.158-.042-.034-.074-.079-.149-.079-.024-.079-.068-.079-.074-.237 0-.079.075-.158.371-.158.223 0 .297.158.297.158s.149-.045.223 0l.35.273-.424-.905c-.52-.148-.742-.395-.742-.395-.149-.158 0-.947 0-.947s.668.079.965.395c0 0 .148.552-.15.868l.51.737.53-.737c-.297-.316-.149-.868-.149-.868.297-.316.891-.395.891-.395s.149.79 0 .947c-.146.142-.148.237-.668.395l-.445.905.37-.273c.15-.042.224 0 .224 0s.074-.158.296-.158c.223 0 .371.08.371.158 0 .158-.074.237-.074.237-.074 0-.148.08-.148.08 0 .078.074.078 0 .157 0 0-.074.08-.297.08-.148.001-.297-.238-.297-.238l.074-.237-.52.344v1.323z"/><path fill="#4c6f40" d="M3.44 3.175V.794l.529.53v-.266L3.283.236l-.637.822v.265l.53-.53v2.382"/></svg>