<svg xmlns="http://www.w3.org/2000/svg" viewBox="0 0 23.812 29.104" height="110" width="90"><path d="M11.93 18.376l1.471-2.06s7.353-1.47 8.824-2.94c0 0 1.6-5.235-2.941-5.883-1.298-5.184-4.49-3.02-4.49-3.02-3.244-3.888-5.805.079-5.805.079s-3.763-1.595-4.412 2.94c-5.19 1.337-2.94 5.883-2.94 5.883 1.47 1.471 8.823 2.942 8.823 2.942z" fill="#4c6f40"/><path d="M10.848 25.135V19.58h-.265s-.264 1.323-1.058 1.852c-.655.304-1.587.265-1.587.265s-.08-1.26.529-1.588c.56-.444 2.116-.793 2.116-.793l.265.006v-.28l-.53.009s-2.347.84-3.703.794c-1.287.023-1.588-.53-1.588-.53s.2-.77 1.323-.793c1.52.023 3.969.264 3.969.264h.529v-.264l-.794-.265s-1.058.53-4.498 0c-2.91-.529-4.233-1.058-4.233-1.058s1.323-.53 4.762-.265c3.175.265 3.97 1.059 3.97 1.059l.793.264v-.264l-1.588-.794s-5.291-1.323-6.614-2.646c-1.323-1.323-1.588-2.91-1.588-2.91s.265-.53 3.44.529c3.969 2.381 5.027 4.762 5.027 4.762l1.588.794.529-.53v-.793h.529v.794l.264.265.265.264 1.587-.794s1.059-2.38 5.028-4.762c3.175-.794 3.44-.53 3.44-.53s-.265 1.588-1.588 2.911-6.615 2.646-6.615 2.646l-1.587.794v.264l.793-.264s.794-.794 3.175-1.059c4.234-.264 5.557.265 5.557.265s-1.323.53-4.234 1.058c-3.44.53-4.498 0-4.498 0l-.793.265v.286l.529-.022s2.378-.288 3.968-.264c.983.023 1.323.794 1.323.794s-.278.552-1.587.529c-1.286-.024-3.704-.794-3.704-.794h-.53v.236l.265.029s1.579.232 2.117.793c.514.468.529 1.588.529 1.588s-1.05-.03-1.588-.265c-.529-.529-1.058-1.852-1.058-1.852h-.264v5.556z" fill="#4c6f40"/><path d="M8.513 9.157s0-5.414 4.183-2.707" stroke="#2e4326" stroke-width=".476" fill="none"/><path d="M15.733 9.525s0-2.646-2.504-1.323" stroke="#2e4326" stroke-width=".257" fill="none"/><path d="M7.938 12.17s0-2.645 2.645-1.322M11.6 11.992s1.324-2.29 2.952.179" stroke="#2e4326" stroke-width=".265" fill="none"/><path d="M10.054 14.817s.362-1.515 1.695-.396M12.967 13.153s1.436-.603 1.32 1.135M2.64 12.173s-.356-1.516 1.338-1.113" stroke="#2e4326" stroke-width=".156" fill="none"/><path d="M18.944 11.22s2.396-1.124 2.321 1.833M16.03 11.38s2.641.154 1.168 2.719M4.97 14.165s-1.044-2.431 1.91-2.259" stroke="#2e4326" stroke-width=".265" fill="none"/></svg>