<svg xmlns="http://www.w3.org/2000/svg" viewBox="0 0 23.812 29.104" height="110" width="90"><path d="M10.848 25.135v-3.968l-.794-.265s-.794.265-4.233-1.058c-2.646-1.059-3.44-2.646-3.44-2.646s1.588 0 4.234 1.058c2.645 1.588 3.44 2.381 3.44 2.381l.793.265v-.265L9.26 19.315s-5.291-2.117-6.614-3.44c-1.323-1.323-1.588-3.969-1.588-3.969s2.91 0 4.234 1.323c2.645 2.646 4.233 5.821 4.233 5.821l1.588 1.323.264-.265-1.058-1.852s-3.704-3.704-5.292-6.085c-.794-1.588.265-5.556.265-5.556s3.44 2.116 3.968 3.44c.794.793 1.323 7.937 1.323 7.937l1.059 1.852-1.059-2.91c0-1.059.265-1.324.265-1.324s.53.265.794 1.059l.264 3.175c.037-1.06.169-2.119.265-3.175.264-.794.794-1.059.794-1.059s.264.265.264 1.323l-1.058 2.91 1.058-1.851s.265-4.763 1.588-7.673c.264-1.323 3.704-3.704 3.704-3.704s1.058 4.233.264 5.82c-1.587 2.117-5.291 5.821-5.291 5.821l-1.059 1.852.265.265 1.587-1.323s1.588-3.175 4.234-5.82c1.323-1.324 4.233-1.324 4.233-1.324s-.264 2.646-1.587 3.969-6.615 3.44-6.615 3.44l-1.587 1.322v.265l.793-.265s.794-.793 3.44-2.38c2.646-1.06 4.233-1.06 4.233-1.06s-.794 1.588-3.44 2.647c-3.439 1.323-4.233 1.058-4.233 1.058l-.793.265v3.968z" fill="#4c6f40"/></svg>