<svg xmlns="http://www.w3.org/2000/svg" viewBox="0 0 23.812 29.104" height="110" width="90"><path d="M11.93 18.11l1.471-2.058s7.353-1.47 8.824-2.941c0 0 1.6-5.235-2.941-5.883-1.298-5.183-4.49-3.02-4.49-3.02-3.244-3.887-5.805.079-5.805.079S5.226 2.692 4.577 7.228c-5.19 1.337-2.94 5.883-2.94 5.883 1.47 1.47 8.823 2.941 8.823 2.941z" fill="#e6ece1" stroke="#4c6f40" stroke-width=".648"/><path d="M10.848 26.458v-5.556h-.265s-.264 1.323-1.058 1.852c-.655.304-1.587.265-1.587.265s-.08-1.26.529-1.588c.56-.444 2.116-.794 2.116-.794l.265.007v-.28l-.53.009s-2.347.84-3.703.794c-1.287.023-1.588-.53-1.588-.53s.2-.77 1.323-.793c1.52.023 3.969.264 3.969.264h.529v-.264l-.794-.265s-1.058.53-4.498 0c-2.91-.529-4.233-1.058-4.233-1.058s1.323-.53 4.762-.265c3.175.265 3.97 1.059 3.97 1.059l.793.264v-.264L9.26 18.52s-5.291-1.323-6.614-2.646c-1.323-1.323-1.588-2.91-1.588-2.91s.265-.53 3.44.529c3.969 2.381 5.027 4.762 5.027 4.762l1.588.794.264-.265-1.058-1.852S6.085 15.081 4.498 12.7c-.794-1.587-1.852-4.762-1.852-4.762s1.323 0 4.498 2.645c3.175 3.97 3.44 6.086 3.44 6.086l1.058 1.852-1.588-3.969-2.646-4.233C6.085 7.938 6.085 5.292 6.085 5.292s2.646 1.323 3.175 3.44c.53 1.851 1.059 5.82 1.059 5.82l1.058 2.646.265.53h.529l.264-.53 1.059-2.646s.264-3.969 1.058-5.82c.794-2.117 3.44-3.705 3.44-3.705s-.265 2.91-1.852 5.292l-2.382 4.233-1.587 3.969 1.058-1.852s.265-2.117 3.175-6.086c3.44-2.646 4.763-2.646 4.763-2.646s-1.059 3.175-1.852 4.763c-1.588 2.117-5.821 4.233-5.821 4.233l-1.059 1.852.265.265 1.587-.794s1.059-2.381 5.028-4.762c3.175-.794 3.44-.53 3.44-.53s-.265 1.588-1.588 2.911-6.615 2.646-6.615 2.646l-1.587.794v.264l.793-.264s.794-.794 3.175-1.059c4.234-.264 5.557.265 5.557.265s-1.323.529-4.234 1.058c-3.44.53-4.498 0-4.498 0l-.793.265v.285l.529-.02s2.378-.289 3.968-.265c.983.023 1.323.794 1.323.794s-.278.552-1.587.529c-1.286-.024-3.704-.794-3.704-.794h-.53v.236l.265.028s1.579.233 2.117.794c.514.468.529 1.588.529 1.588s-1.05-.031-1.588-.265c-.529-.529-1.058-1.852-1.058-1.852h-.264v5.556z" fill="#4c6f40"/><path d="M8.513 8.893s0-5.415 4.183-2.707" fill="none" stroke="#4c6f40" stroke-width=".476"/><path d="M15.733 9.26s0-2.645-2.504-1.323" fill="none" stroke="#4c6f40" stroke-width=".257"/><path d="M7.938 11.906s0-2.646 2.645-1.323M11.6 11.727s1.324-2.29 2.952.18" fill="none" stroke="#4c6f40" stroke-width=".265"/><path d="M10.054 14.552s.362-1.514 1.695-.396M12.967 12.889s1.436-.603 1.32 1.134M2.64 11.908s-.356-1.516 1.338-1.113" fill="none" stroke="#4c6f40" stroke-width=".156"/><path d="M18.944 10.955s2.396-1.124 2.321 1.833" fill="none" stroke="#4c6f40" stroke-width=".265"/></svg>