<svg xmlns="http://www.w3.org/2000/svg" viewBox="0 0 23.812 29.104" height="110" width="90"><path d="M11.377 25.135v-4.762l-1.852-.794.265.794s-.53.794-1.059.794c-.793 0-1.058-.265-1.058-.265-.265-.264 0-.264 0-.53-.15-.114-.265-.264-.53-.264-.087-.264-.243-.264-.264-.793 0-.265.265-.53 1.323-.53.794 0 1.058.53 1.058.53s.53-.153.794 0l1.323.529-1.587-2.646c-1.852-.496-2.646-1.323-2.646-1.323-.53-.53 0-3.175 0-3.175s2.381.265 3.44 1.323c0 0 .529 1.852-.53 2.91l1.852 2.646 1.852-2.646c-1.058-1.058-.529-2.91-.529-2.91 1.058-1.058 3.175-1.323 3.175-1.323s.53 2.646 0 3.175c-.522.474-.529.794-2.381 1.323l-1.588 2.646 1.323-.53c.53-.141.794 0 .794 0s.265-.529 1.058-.529c.794 0 1.323.265 1.323.53 0 .529-.264.793-.264.793-.265 0-.53.265-.53.265 0 .264.265.264 0 .53 0 0-.264.264-1.058.264-.529.008-1.058-.794-1.058-.794l.264-.794-1.852.794v4.762z" fill="#4c6f40"/></svg>