<svg xmlns="http://www.w3.org/2000/svg" viewBox="0 0 23.812 29.104" height="110" width="90"><path d="M10.914 22.754l-2.646-2.91-3.254-2.88-.159.592.296.08.433.75-.512-.454.246.858-.542-.938-.158.592.353 1.046-.541-.938.137.672.246.858-.433-.75-.246-.859-.238.888-.058-.967.267-.404.267-.405-.296-.079-1.046.354.75-.433-.7-.346 1.075.13-.404-.268.592.16.217.374.158-.592-1.32-.988-.268.404.592.159-.08.296-.108-.188-.483.03.325.562-.513-.454-.454.512.346-.7-.296-.08.563-.324.267-.404-.404-.267-.267.404-.08.296-.029-.484.08-.296-.592-.158-.78-.05.672-.138.78.05.266-.404.483-.029-.375.217-.08.296.11.187.403.267.267-.404-.108-.187-.483.029.375-.217.296.08.158-.593.75-.433-.454.513-.158.591.483-.029.217.376-.405-.267-.079.296-.158.591-.03-.483-.295-.08-.267.405 1.212.8.08-.295-.296-.08-.404-.267.295.08.296.079-.512-.455.404.267-.029-.483.325.563.08-.296.05-.78.642-.62-.347.7-.079.296.455-.513.779.05-.671.138-.267.404.62.642-.403-.267-.296-.08-.08.297.592.158.138.671-.325-.562-.296-.08.325.563-.513-.454-.187.108-.08.296 3.44 2.646 2.646 2.38H12.238l2.645-2.38 3.683-2.689-.081-.302-.192-.11-.523.463.332-.574-.302.081-.331.574.14-.684.603-.162-.08-.302-.302.08-.413.273.634-.655-.273-.412-.684-.14.795-.052.464.523-.081-.302-.354-.714.655.633.052.795.08.302.332-.574-.03.493.413-.272-.523.464.302-.081.302-.08-.413.271-.301.081.08.302 1.237-.817-.272-.412-.302.08-.03.494-.08-.302-.08-.302.11-.191-.192-.11-.412.272.22-.383.494.03-.162-.604-.463-.523.765.442.162.604.302-.081.383.22-.494-.029-.11.192.272.412.412-.272.111-.192-.08-.302-.384-.22.494.03.272.411.795-.05.685.14-.795.05-.604.162.08.302-.029.493-.08-.301-.273-.413-.412.272.272.413.765.442-.493-.03.353.714-.463-.522-.523.463.331-.574-.493-.03-.11.192-.081-.302.603-.162-.272-.412c-.498.329-1.347 1.008-1.347 1.008l.161.604.221-.383.604-.162-.412.272 1.097-.132-.715.353.766.442-1.067-.36-.302.08.272.412.272.413-.059.986-.243-.905-.25.876-.442.765.25-.876.03-.493-.442.765.361-1.067-.162-.604-.552.957.25-.876-.522.464.442-.766.301-.08-.161-.604-3.5 2.916-2.645 2.91z" fill="#4c6f40"/><path d="M9.062 25.135c0-2.645 2.655-2.672 2.655-2.672s2.637.027 2.637 2.672z" fill="#bd7129"/><path d="M10.914 22.49L7.74 15.875l-2.91-4.233-.53.529.265.264v1.059L4.3 12.7l-.264 1.058v-1.323l-.53.53-.264 1.322v-1.322l-.264.793-.265 1.059v-1.059l.265-1.058-.794.794.529-1.059.53-.264.528-.265-.264-.264-1.323-.265H3.24l-.529-.794 1.058.794-.264-.53.529.53v.53l.53-.53-.795-1.852-.529.265.53.529-.265.264v-.264l-.53-.265v.794l-.264-.794-.794.265.794-.53-.265-.264h.794l.53-.265-.265-.529-.53.265-.264.264.265-.529.264-.264-.529-.53-.794-.529.794.265.794.53.529-.266.53.265h-.53l-.265.265v.264l.265.53.53-.265V8.73l-.53-.264h.53l.264.264.529-.529h1.058l-.794.265-.529.529.53.264v.53l-.265-.53-.265.265-.529.53.265-.53-.265-.265-.53.265.795 1.587.264-.264-.264-.265-.265-.529.265.265.264.264-.264-.793.264.529.265-.53v.794l.264-.264.53-.794L7.21 9.26l-.794.53-.264.264.793-.264.794.529-.794-.265-.529.265.265 1.058-.265-.53-.264-.264-.265.265.53.53-.265.793v-.794l-.265-.265v.794l-.265-.794h-.264l-.265.265 2.91 4.233 3.176 6.086h1.058l3.175-6.35 2.91-3.969-.264-.265h-.265l-.264.794v-.794l-.265.265v.794L17 11.377l.53-.53-.265-.264-.265.265-.264.53.264-1.06-.529-.264-.793.265.793-.53.794.265L17 9.79l-.793-.53 1.058.265.53.794.264.264V9.79l.264.529.265-.53-.265.794.265-.264.265-.265-.265.53-.265.264.265.264.794-1.587-.53-.265-.264.265.265.53-.265-.265-.265-.265V9.26h-.264l-.265.53v-.53l.53-.264-.53-.53L17 8.203h1.059l.529.53.265-.265h.529l-.53.264v.265l.53.264.264-.529v-.264l-.264-.265h-.53l.53-.265.529.265.794-.53.793-.264-.793.53-.53.529.265.264.265.53-.265-.265-.53-.265-.264.53.53.264h1.058l-.53.265.794.529-.793-.265-.265.794v-.794l-.53.265v.264l-.264-.264.53-.53-.53-.264c-.32.64-.793 1.852-.793 1.852l.529.53v-.53l.529-.53-.265.53 1.059-.794-.53.794h1.059l-1.323.265-.265.264.53.265.529.264.529 1.059-.794-.794.265 1.058v1.059l-.265-1.059-.265-.529v1.058l-.264-1.322-.53-.53v1.323l-.264-1.058-.264.794v-1.059l.264-.264-.529-.53-2.91 4.234-3.175 6.615z" fill="#4c6f40"/><path d="M11.179 22.49L10.12 10.583 8.797 6.35l-.529.53.265.264v1.058l-.265-.794-.264 1.059V7.144l-.53.529-.264 1.323V7.673l-.265.794-.264 1.058V8.467l.264-1.059-.793.794.529-1.058.529-.265.53-.264-.266-.265-1.322-.265H7.21l-.53-.793 1.06.793-.266-.529.53.53v.529l.529-.53-.794-1.852-.53.265.53.53-.265.264v-.265l-.529-.265v.794l-.264-.794-.794.265.794-.53-.265-.264h.794l.53-.264-.266-.53-.529.265-.264.265.264-.53.265-.264-.53-.53-.793-.528.794.264.793.53.53-.265.529.264h-.53l-.264.265v.265l.265.529.529-.265V3.44l-.53-.265h.53l.264.265.53-.53h1.058l-.794.265-.529.53.53.264v.529l-.265-.53-.265.265-.53.53.265-.53-.264-.264-.53.264.794 1.588.265-.265-.265-.264-.264-.53.264.265.265.265-.265-.794.265.53.265-.53v.794l.264-.265.53-.794 1.058-.264-.794.529-.265.264.794-.264.794.53-.794-.266-.53.265.265 1.058-.264-.529-.265-.264-.264.264.529.53-.265.793v-.794l-.264-.264v.794L9.59 5.82h-.264l-.265.264 1.587 4.498 1.059 11.642 1.058-11.642 1.588-4.498-.265-.264h-.265l-.264.794V5.82l-.265.264v.794l-.264-.794.529-.529-.265-.264-.264.264-.265.53.265-1.059-.53-.265-.793.265.794-.53.793.265-.264-.264-.794-.53 1.058.265.53.794.264.265v-.794l.265.53.264-.53-.264.794.264-.265.265-.265-.265.53-.264.264.264.265.794-1.588-.53-.264-.264.264.265.53-.265-.265-.264-.265V3.97h-.265l-.265.529v-.53l.53-.264-.53-.529-.793-.265h1.058l.53.53.264-.265h.529l-.53.265v.264l.53.265.265-.53v-.264l-.265-.265h-.53l.53-.264.53.264.793-.529.794-.264-.794.529-.53.529.265.265.265.529-.265-.265-.529-.264-.264.529.529.264h1.058l-.53.265.795.529-.794-.265-.265.794v-.794l-.529.265v.265l-.264-.265.529-.53-.53-.264c-.32.64-.793 1.852-.793 1.852l.529.53v-.53l.53-.529-.265.53 1.058-.794-.53.793h1.06l-1.324.265-.264.265.529.264.529.265.53 1.058-.795-.794.265 1.059v1.058l-.265-1.058-.264-.53v1.059l-.265-1.323-.529-.53v1.324l-.265-1.059-.264.794V7.144l.264-.265-.529-.529-1.323 4.233-1.058 11.907z" fill="#4c6f40"/></svg>