<svg xmlns="http://www.w3.org/2000/svg" viewBox="0 0 23.812 29.104" height="110" width="90"><g fill="#4c6f40"><path d="M11.113 25.135l-3.175-6.614-2.91-4.234-.53.53.265.264v1.059l-.265-.794-.265 1.058v-1.323l-.529.53-.264 1.322V15.61l-.265.794-.265 1.059v-1.059l.265-1.058-.794.794.53-1.059.529-.264.529-.265-.265-.264-1.323-.265H3.44l-.53-.794 1.059.794-.265-.53.53.53v.53l.529-.53-.794-1.852-.53.264.53.53-.265.264v-.264l-.529-.265v.794L2.91 12.7l-.793.265.793-.53-.264-.264h.794l.529-.265-.265-.529-.529.265-.265.264.265-.529.265-.265-.53-.529-.793-.529.793.265.794.529.53-.265.529.265h-.53l-.264.264v.265l.264.53.53-.265v-.265l-.53-.264h.53l.264.264.53-.53h1.058l-.794.266-.53.529.53.264v.53l-.265-.53-.264.265-.53.529.265-.53-.264-.264-.53.265.794 1.587.265-.264-.265-.265-.264-.529.264.265.265.264-.265-.794.265.53.264-.53v.794l.265-.264.529-.794 1.058-.265-.793.53-.265.264.794-.265.793.53-.793-.265-.53.265.265 1.058-.264-.53-.265-.264-.265.265.53.529-.265.794v-.794l-.265-.265v.794l-.264-.794h-.265l-.264.265 2.91 3.969 3.175 6.35h1.058l3.175-6.35 2.91-3.97-.264-.264h-.264l-.265.794v-.794l-.264.265v.794l-.265-.794.53-.53-.265-.264-.265.265-.265.529.265-1.058-.53-.265-.793.265.794-.53.794.265-.265-.265-.794-.529 1.059.265.529.794.264.264v-.794l.265.53.264-.53-.264.794.264-.264.265-.265-.265.53-.264.264.264.264.794-1.587-.529-.265-.265.265.265.529-.265-.265-.264-.264v-.265h-.265l-.264.53v-.53l.529-.264-.53-.53-.793-.264h1.058l.53.53.264-.266h.53l-.53.265v.265l.53.264.264-.529v-.264l-.265-.265h-.529l.53-.265.528.265.794-.53.794-.264-.794.53-.53.529.266.264.264.53-.264-.265-.53-.265-.264.53.529.264h1.058l-.529.264.794.53-.794-.265-.264.794V12.7l-.53.265v.264l-.264-.264.529-.53-.53-.264c-.319.64-.793 1.852-.793 1.852l.53.53v-.53l.528-.53-.264.53 1.058-.794-.53.794h1.06l-1.324.265-.264.264.529.265.53.264.528 1.059-.793-.794.264 1.058v1.058l-.264-1.058-.265-.529v1.058l-.265-1.323-.529-.529v1.323l-.264-1.058-.265.794V15.08l.265-.264-.53-.53-2.91 4.234-3.175 6.614z"/><path d="M11.377 25.135L9.79 13.23l-.794-4.233-.53.529.265.265v1.058l-.264-.794-.265 1.059V9.79l-.53.529-.264 1.323v-1.323l-.264.793-.265 1.059v-1.058l.265-1.059-.794.794.53-1.058.528-.265.53-.265-.265-.264L6.35 8.73h1.058l-.529-.794 1.059.794-.265-.529.53.53v.528l.528-.529-.793-1.852-.53.265.53.529-.265.264v-.264l-.53-.265v.794l-.264-.794-.794.265.794-.53-.264-.264h.793l.53-.264-.265-.53-.53.265-.264.265.265-.53.264-.264-.529-.53-.794-.529.794.265.794.53.53-.265.528.264h-.529l-.264.265v.264l.264.53.53-.265v-.265l-.53-.264h.53l.264.264.529-.529h1.058l-.793.265-.53.529.53.265v.529l-.265-.53-.265.265-.529.53.265-.53-.265-.264-.529.264.794 1.588.264-.265-.264-.265-.265-.529.265.265.264.264-.264-.793.264.529.265-.53v.794l.265-.264.529-.794 1.058-.264-.794.529-.264.264.794-.264.793.529-.794-.265-.529.265.265 1.058-.265-.529-.264-.265-.265.265.53.53-.265.793v-.794l-.265-.264v.793l-.264-.793h-.265l-.265.264L10.32 12.7l1.587 11.113L12.965 12.7l1.058-3.969-.265-.264h-.264l-.265.793v-.793l-.264.264v.794l-.265-.794.53-.529-.265-.265-.265.265-.265.53.265-1.06-.53-.264-.793.265.794-.53.794.265-.265-.264-.794-.53 1.059.265.529.794.264.264v-.793l.265.529.264-.53-.264.794.264-.264.265-.265-.265.53-.264.264.264.265.794-1.588-.529-.264-.265.264.265.53-.265-.265-.264-.265v-.264h-.265l-.264.529v-.53l.529-.264-.53-.53-.793-.264h1.058l.53.53.264-.265h.53l-.53.264v.265l.53.265.264-.53v-.264l-.265-.265h-.529l.53-.264.528.264.794-.529.794-.265-.794.53-.529.529.265.264.264.53-.264-.265-.53-.265-.264.53.529.264h1.058l-.529.265.794.529-.794-.265-.264.794v-.794l-.53.265v.264l-.264-.264.529-.53-.53-.264c-.319.64-.793 1.852-.793 1.852l.53.53v-.53l.528-.529-.264.53 1.058-.795-.529.794h1.058l-1.323.265-.264.264.529.265.53.265.528 1.058-.793-.794.264 1.058v1.059l-.264-1.058-.265-.53v1.059l-.265-1.323-.529-.53v1.324l-.264-1.059-.265.794V9.79l.265-.265-.53-.53-.793 4.234-1.059 11.906z"/></g></svg>