<svg xmlns="http://www.w3.org/2000/svg" viewBox="0 0 23.812 29.104" height="110" width="90"><g fill="#4c6f40"><path d="M11.512 25.135l.133-1.058-1.588-2.646-1.587-.793c.404.613-1.059 1.322-1.059 1.322-1.058.53-4.233-.793-4.233-.793S1.6 20.66 1.06 19.844c.363-.63 1.852-.794 1.852-.794 2.024-.363 3.397-.082 3.969 0 0 0 2.117.53 1.588 1.323l1.852.794 1.587 2.38 1.588-2.38 1.852-.794c-.265-.794 1.587-1.323 1.587-1.323.648-.093 1.997-.236 3.969 0 0 0 1.536.247 1.852.794-.54.816-2.117 1.587-2.117 1.587s-2.91 1.059-4.233.53c0 0-1.463-.711-1.058-1.324l-1.588.794-1.587 2.646.132 1.058z"/><path d="M11.512 25.135l.133-1.587-2.117-1.852C8.734 20.373 7.94 18.52 7.94 18.52c-1.374-.794-1.874-.353-1.874-.353-1.2-.791-1.844-4.849-1.844-4.849s-.354-1.889.178-2.953c.882 0 1.93 1.42 1.93 1.42 1.61 1.907 2.999 4.286 3.26 4.937 0 0-.856.423-1.212 1.595 0 0 .62 2.055 1.414 3.113l2.117 1.588 2.117-1.588c.794-1.058 1.567-3.074 1.567-3.074-.377-1.472-1.232-1.895-1.232-1.895.302-.755 1.783-2.964 3.26-4.937 0 0 1.146-1.42 1.93-1.42.543 1.086.177 2.953.177 2.953s-.46 3.64-1.85 4.734c0 0-.493-.326-2 .729 0 0-.794 2.117-1.588 3.175l-2.116 1.852.132 1.587z"/><path d="M11.512 25.135l.133-1.058c-.414-1.129-1.059-3.969-1.059-3.969-.264-.793-1.058-6.614-1.058-6.614-.589.664-1.447-.804-1.447-.804-.945-1.075-.616-5.369-.616-5.369s.162-2.075.947-2.96c.848.227 1.762 1.996 1.762 1.996 1.056 2.247.869 3.99.951 4.684 0 0 .014 3.016-1.068 2.453 0 0 .645 5.75.91 6.544 0 0 .53 1.852.942 2.98.38-1.128.91-2.98.91-2.98.265-.794.942-6.544.942-6.544-.826.495-1.125-2.452-1.125-2.452.094-.786-.105-2.437.787-4.667 0 0 1.219-1.824 1.957-2.021.785.885.916 2.968.916 2.968s.329 4.295-.869 5.462c0 0-.548 1.374-1.137.71 0 0-.793 5.82-1.058 6.614 0 0-.678 2.84-1.058 3.97l.132 1.057z"/></g></svg>