<svg xmlns="http://www.w3.org/2000/svg" viewBox="0 0 23.812 29.104" height="110" width="90"><path d="M11.51 25.135l-.264-1.323c-.187-.149-1.985-1.058-1.985-1.058l-7.673-4.233c-.264-.265.265-.265.265-.265s4.762 1.588 9.393 5.292l.396.53-.661-2.911c-.397.793-1.852-.265-1.852-.265-1.19-.794-1.984-5.027-1.984-5.027s-.265-2.117.264-3.175c.878 0 2.102 1.542 2.102 1.542 1.602 1.898 1.872 3.63 2.131 4.279 0 0 .794 2.91-.396 2.646l.661 2.38.661-2.38c-.926.264-.396-2.646-.396-2.646.294-.735.529-2.381 1.968-4.304 0 0 1.5-1.517 2.265-1.517.53 1.058.265 3.175.265 3.175s-.794 4.233-2.253 5.051c0 0-1.187 1.034-1.584.24l-.661 2.911.396-.53c4.63-3.703 9.658-5.29 9.658-5.29s.397 0 .264.264l-7.937 4.233s-1.42.607-1.985 1.058l-.264 1.323z" fill="#4c6f40"/></svg>