<svg xmlns="http://www.w3.org/2000/svg" viewBox="0 0 23.812 29.104" height="110" width="90"><g fill="#4c6f40"><path d="M11.462 25.183l.132-1.059-1.587-2.645-1.588-.794c.405.613-1.058 1.323-1.058 1.323-1.058.529-4.233-.794-4.233-.794S1.55 20.709 1.01 19.89c.363-.63 1.852-.794 1.852-.794 2.024-.363 3.397-.082 3.969 0 0 0 2.117.53 1.587 1.323l1.852.794 1.588 2.381 1.587-2.381 1.853-.794c-.265-.794 1.587-1.323 1.587-1.323.648-.093 1.997-.235 3.969 0 0 0 1.536.247 1.852.794-.54.817-2.117 1.588-2.117 1.588s-2.91 1.058-4.233.529c0 0-1.463-.71-1.058-1.323l-1.588.794-1.587 2.645.132 1.059z"/><path d="M11.462 25.183l.132-1.588-2.116-1.852c-.794-1.323-3.28-4.188-3.28-4.188-1.534-.411-1.903.145-1.903.145-1.363-.455-3.035-4.207-3.035-4.207S.428 11.76.667 10.594c.852-.228 2.231.872 2.231.872 2.05 1.426 4.006 3.364 4.427 3.926 0 0-.717.63-.758 1.853l3.175 4.234 2.117 1.587 2.117-1.587 3.175-4.234c.017-1.52-.7-2.149-.7-2.149.487-.65 2.489-2.401 4.427-3.925 0 0 1.474-1.075 2.231-.872.244 1.19-.593 2.898-.593 2.898s-1.386 3.397-3.012 4.094c0 0-.392-.443-2.121.186 0 0-2.349 3.208-3.143 4.266l-2.116 1.852.132 1.588z"/><path d="M11.462 25.183l.132-1.059c-.413-1.129-1.058-3.968-1.058-3.968-.265-.794-3.765-9.814-3.765-9.814.048.805-2.056-.24-2.056-.24C3.417 10.017.868 7.045.868 7.045s-.62-.784-.685-1.858c.691-.398 2.416.15 2.416.15 2.123.766 2.411 1.46 2.91 1.853 0 0 2.66 2.478 1.602 2.81 0 0 3.541 9.29 3.806 10.084 0 0 .529 1.852.942 2.981.38-1.129.91-2.981.91-2.981.264-.794 4.075-10.166 4.075-10.166-.836-.21.928-2.425.928-2.425.557-.439 1.476-1.61 3.452-2.456 0 0 1.925-.383 2.518-.04-.064 1.057-1.3 2.458-1.3 2.458s-2.51 2.926-4.006 2.907c0 0-1.217.522-1.169-.27 0 0-3.82 9.269-4.085 10.063 0 0-.678 2.84-1.058 3.968l.132 1.059z"/><path d="M11.462 25.183l.132-1.059c-.413-1.129-1.058-3.968-1.058-3.968-.265-.794-1.321-10.253-1.321-10.253-.397.794-1.606-.401-1.606-.401-1.19-.794-1.984-5.028-1.984-5.028s-.38-2.045.149-3.104c.877 0 2.218 1.472 2.218 1.472 1.602 1.897 1.872 3.63 2.131 4.278 0 0 .794 2.91-.397 2.646 0 0 .926 9.525 1.19 10.319 0 0 .53 1.852.943 2.981.38-1.129.91-2.981.91-2.981.264-.794 1.246-10.305 1.246-10.305-.926.265-.452-2.66-.452-2.66.294-.735.529-2.38 1.968-4.304 0 0 1.65-1.446 2.413-1.446.53 1.059.117 3.104.117 3.104s-.794 4.234-2.253 5.052c0 0-.885 1.185-1.282.39 0 0-1.08 9.446-1.344 10.24 0 0-.678 2.84-1.058 3.968l.132 1.059z"/><path d="M11.33 25.183l-.265-1.059-1.587-2.38c-.794-1.324-.737-4.707-.737-4.707-1.055-.609-1.438-.27-1.438-.27-.92-.608-1.415-3.722-1.415-3.722s-.272-1.45.136-2.266c.677 0 1.481 1.09 1.481 1.09 1.236 1.463 2.302 3.289 2.502 3.789 0 0-.656.324-.93 1.223 0 0-.128 3.54.665 4.598l2.117 1.587 2.117-1.587c.793-1.059 1.099-4.601 1.099-4.601-.273-1.067-.893-1.374-.893-1.374.219-.547 1.292-2.148 2.363-3.58 0 0 .83-1.029 1.4-1.029.393.788.128 2.141.128 2.141s-.333 2.64-1.341 3.432c0 0-.358-.236-1.45.529 0 0-.248 3.688-1.042 4.746l-1.587 2.381-.265 1.059z"/></g></svg>